<?xml version="1.0" standalone="no"?>
<!DOCTYPE svg PUBLIC "-//W3C//DTD SVG 20010904//EN"
 "http://www.w3.org/TR/2001/REC-SVG-20010904/DTD/svg10.dtd">
<svg version="1.0" xmlns="http://www.w3.org/2000/svg"
 width="260.000000pt" height="260.000000pt" viewBox="0 0 260.000000 260.000000"
 preserveAspectRatio="xMidYMid meet">
<metadata>
Created by potrace 1.11, written by Peter Selinger 2001-2013
</metadata>
<g transform="translate(0.000000,260.000000) scale(0.100000,-0.100000)"
fill="#000000" stroke="none">
<path d="M146 2480 c-59 -264 -38 -535 59 -755 41 -92 128 -216 195 -278 l60
-56 0 -223 c0 -286 15 -356 92 -443 30 -34 31 -39 29 -115 -1 -44 2 -81 8 -84
23 -15 201 -23 289 -15 l93 10 62 -41 c82 -54 169 -80 266 -80 112 0 181 23
293 97 36 24 38 24 129 13 69 -8 117 -8 188 1 53 6 100 13 104 16 5 3 7 40 6
83 -2 76 -1 81 29 115 77 87 92 157 92 443 l0 223 60 56 c203 188 315 525 282
847 -7 63 -19 146 -28 186 l-17 73 -96 -6 c-130 -8 -247 -38 -360 -93 -78 -38
-109 -61 -181 -132 -70 -70 -95 -103 -126 -168 l-39 -80 -60 15 c-85 21 -465
21 -550 0 l-60 -15 -39 80 c-31 63 -57 99 -125 167 -73 72 -102 94 -181 132
-114 56 -231 86 -361 94 l-96 6 -17 -73z m259 -57 c39 -8 112 -35 164 -60 116
-55 207 -142 263 -249 l37 -70 -62 -31 c-164 -81 -287 -244 -328 -435 l-11
-50 -25 24 c-56 51 -138 192 -174 296 -47 137 -65 385 -38 537 l11 66 47 -6
c25 -3 78 -13 116 -22z m1964 -38 c27 -152 9 -400 -38 -537 -36 -103 -118
-245 -173 -296 l-25 -23 -17 68 c-22 89 -62 174 -119 249 -54 71 -113 119
-202 166 l-64 33 37 70 c88 171 274 292 497 325 97 14 92 17 104 -55z m-784
-404 c187 -49 313 -145 383 -293 22 -46 46 -108 53 -138 19 -77 20 -606 1
-669 -16 -50 -25 -45 -41 23 -28 115 -121 271 -199 333 -52 42 -156 98 -211
114 -23 7 -45 19 -48 26 -13 34 -59 43 -223 43 -164 0 -210 -9 -223 -43 -3 -7
-25 -19 -48 -26 -55 -16 -159 -72 -211 -114 -78 -62 -171 -218 -199 -333 -16
-68 -25 -73 -41 -23 -9 32 -13 121 -13 329 0 320 4 346 66 478 82 171 241 275
474 312 105 16 388 5 480 -19z m-410 -751 c27 0 35 -4 35 -18 0 -11 10 -27 21
-38 20 -18 21 -25 15 -132 -14 -233 -79 -336 -251 -402 -47 -18 -88 -24 -185
-28 l-126 -5 3 44 c24 329 137 515 362 594 30 10 41 10 63 -1 15 -8 43 -14 63
-14z m446 -15 c177 -90 271 -270 292 -564 l3 -44 -126 5 c-180 8 -284 51 -354
147 -58 80 -69 122 -74 271 -4 116 -2 138 12 149 9 7 16 22 16 32 0 15 8 19
38 19 20 1 48 7 61 14 27 15 60 7 132 -29z m-297 -477 c30 -49 86 -107 139
-143 l48 -32 -26 -17 c-47 -31 -106 -46 -179 -46 -81 0 -136 13 -184 42 l-33
20 48 33 c54 37 128 113 145 150 15 32 20 32 42 -7z"/>
<path d="M888 1574 c-15 -8 -35 -28 -43 -44 -60 -116 86 -226 179 -134 91 92
-22 240 -136 178z"/>
<path d="M1598 1572 c-16 -9 -35 -32 -44 -50 -59 -124 126 -225 197 -108 62
102 -53 221 -153 158z"/>
<path d="M939 341 c-34 -35 -37 -68 -8 -105 l20 -26 -20 -26 c-24 -30 -26 -52
-10 -87 12 -26 47 -47 78 -47 27 0 68 36 75 65 l6 25 220 0 220 0 6 -25 c7
-29 48 -65 75 -65 31 0 66 21 78 47 16 35 14 57 -10 87 l-20 26 20 26 c12 15
21 38 21 51 0 32 -51 83 -83 83 -32 0 -73 -33 -81 -65 l-6 -25 -220 0 -220 0
-6 25 c-8 32 -49 65 -81 65 -14 0 -37 -13 -54 -29z"/>
</g>
</svg>
