<?xml version="1.0" encoding="UTF-8" standalone="no"?><!DOCTYPE svg PUBLIC "-//W3C//DTD SVG 1.1//EN" "http://www.w3.org/Graphics/SVG/1.1/DTD/svg11.dtd"><svg width="100%" height="100%" viewBox="0 0 100 100" version="1.1" xmlns="http://www.w3.org/2000/svg" xmlns:xlink="http://www.w3.org/1999/xlink" xml:space="preserve" style="fill-rule:evenodd;clip-rule:evenodd;stroke-linejoin:round;stroke-miterlimit:1.41421;"><g id="Dot"><path d="M50.645,0.005c2.332,0.044 4.654,0.219 6.961,0.572c4.672,0.715 9.237,2.099 13.518,4.099c9.656,4.512 17.745,12.132 22.834,21.495c2.341,4.307 4.041,8.958 5.025,13.761c1.104,5.392 1.309,10.968 0.614,16.428c-0.649,5.105 -2.095,10.102 -4.273,14.764c-2.55,5.457 -6.093,10.438 -10.402,14.646c-4.458,4.353 -9.726,7.866 -15.465,10.296c-5.942,2.515 -12.361,3.847 -18.812,3.929c-6.475,0.082 -12.949,-1.091 -18.973,-3.468c-5.804,-2.29 -11.16,-5.679 -15.726,-9.93c-4.404,-4.1 -8.063,-8.991 -10.743,-14.38c-2.284,-4.594 -3.85,-9.539 -4.626,-14.611c-0.801,-5.238 -0.768,-10.604 0.099,-15.831c0.772,-4.656 2.211,-9.197 4.261,-13.448c4.805,-9.967 12.938,-18.197 22.846,-23.124c4.219,-2.098 8.736,-3.591 13.375,-4.421c2.286,-0.409 4.593,-0.642 6.913,-0.745c0.858,-0.027 1.715,-0.038 2.574,-0.032Zm-1.184,8.332c-5.896,0.113 -11.708,1.39 -17.058,3.889c-8.358,3.905 -15.303,10.606 -19.51,18.816c-1.787,3.486 -3.075,7.224 -3.813,11.071c-0.865,4.511 -0.978,9.167 -0.341,13.715c0.593,4.235 1.847,8.373 3.704,12.225c2.18,4.522 5.184,8.638 8.817,12.102c3.761,3.586 8.189,6.464 13,8.431c4.985,2.038 10.355,3.08 15.74,3.08c5.385,0 10.755,-1.042 15.74,-3.08c4.811,-1.967 9.239,-4.845 13,-8.431c3.633,-3.464 6.637,-7.58 8.817,-12.102c1.857,-3.852 3.111,-7.99 3.704,-12.225c0.637,-4.548 0.524,-9.204 -0.341,-13.715c-0.738,-3.847 -2.026,-7.585 -3.813,-11.071c-4.207,-8.21 -11.152,-14.911 -19.51,-18.816c-5.35,-2.499 -11.162,-3.776 -17.058,-3.889c-0.543,-0.003 -0.539,-0.003 -1.078,0Z" style="fill-rule:nonzero;"/><circle id="Oval" cx="50" cy="50" r="29.166"/></g></svg>