<?xml version="1.0" encoding="UTF-8" standalone="no"?><!DOCTYPE svg PUBLIC "-//W3C//DTD SVG 1.1//EN" "http://www.w3.org/Graphics/SVG/1.1/DTD/svg11.dtd"><svg width="100%" height="100%" viewBox="0 0 100 100" version="1.1" xmlns="http://www.w3.org/2000/svg" xmlns:xlink="http://www.w3.org/1999/xlink" xml:space="preserve" style="fill-rule:evenodd;clip-rule:evenodd;stroke-linejoin:round;stroke-miterlimit:1.41421;"><path id="angellist" d="M68.613,41.484c3.067,-8.334 5.46,-15.213 7.177,-20.639c1.717,-5.426 2.576,-8.757 2.576,-9.993c0,-1.328 -0.286,-2.358 -0.859,-3.091c-0.573,-0.732 -1.363,-1.099 -2.369,-1.099c-1.282,0 -2.587,1.065 -3.915,3.194c-1.329,2.129 -2.793,5.553 -4.396,10.268l-6.868,19.849l8.654,1.511Zm-9.135,18.475c-1.969,-0.091 -3.836,-0.297 -5.598,-0.618c-1.762,-0.319 -3.445,-0.778 -5.048,-1.373c0.732,1.466 1.385,2.93 1.958,4.395c0.572,1.466 1.041,2.909 1.408,4.327c1.099,-1.374 2.255,-2.62 3.468,-3.743c1.213,-1.122 2.483,-2.118 3.812,-2.988Zm-7.761,-20.81l-7.417,-21.429c-1.924,-5.449 -3.412,-9.008 -4.465,-10.68c-1.054,-1.671 -2.198,-2.507 -3.434,-2.507c-0.961,0 -1.741,0.367 -2.335,1.099c-0.595,0.733 -0.893,1.717 -0.893,2.953c0,2.106 0.8,5.77 2.404,10.989c1.602,5.22 4.006,12.066 7.212,20.536c0.274,-0.504 0.662,-0.858 1.167,-1.064c0.504,-0.206 1.191,-0.31 2.06,-0.31c0.275,0 0.825,0.024 1.649,0.069c0.824,0.046 2.174,0.161 4.052,0.344Zm-6.731,33.173c0.779,0 1.487,-0.354 2.129,-1.065c0.642,-0.709 0.962,-1.476 0.962,-2.3c0,-0.869 -0.63,-2.896 -1.889,-6.079c-1.26,-3.182 -2.827,-6.307 -4.704,-9.375c-1.374,-2.289 -2.725,-4.017 -4.053,-5.185c-1.328,-1.168 -2.587,-1.752 -3.777,-1.752c-0.962,0 -2.026,0.608 -3.194,1.82c-1.168,1.214 -1.751,2.347 -1.751,3.4c0,1.099 0.572,2.748 1.717,4.945c1.143,2.198 2.678,4.533 4.601,7.006c2.015,2.702 3.915,4.808 5.701,6.318c1.786,1.511 3.204,2.267 4.258,2.267Zm-20.604,-1.648c0.641,0.779 1.534,1.923 2.678,3.434c3.022,4.166 5.814,6.25 8.38,6.25c0.868,0 1.648,-0.275 2.335,-0.824c0.686,-0.55 1.03,-1.122 1.03,-1.717c0,-0.687 -0.458,-1.831 -1.374,-3.434c-0.917,-1.603 -2.175,-3.411 -3.777,-5.426c-1.832,-2.336 -3.355,-4.041 -4.568,-5.117c-1.213,-1.075 -2.187,-1.614 -2.919,-1.614c-1.603,0 -3.08,0.858 -4.43,2.575c-1.35,1.717 -2.025,3.744 -2.025,6.079c0,1.878 0.469,3.973 1.407,6.284c0.938,2.312 2.301,4.636 4.087,6.971c2.702,3.618 6.054,6.398 10.062,8.344c4.006,1.948 8.436,2.919 13.29,2.919c8.928,0 16.403,-3.331 22.424,-9.992c6.021,-6.662 9.032,-15.007 9.032,-25.035c0,-3.067 -0.23,-5.505 -0.687,-7.314c-0.458,-1.809 -1.213,-3.125 -2.266,-3.949c-1.879,-1.556 -5.529,-2.954 -10.955,-4.19c-5.426,-1.236 -11.092,-1.854 -16.999,-1.854c-1.648,0 -2.816,0.274 -3.502,0.824c-0.687,0.549 -1.031,1.488 -1.031,2.816c0,3.114 1.74,5.368 5.22,6.765c3.479,1.397 9.111,2.095 16.896,2.095l2.816,0c0.641,0 1.156,0.24 1.545,0.721c0.388,0.48 0.653,1.202 0.79,2.163c-0.78,0.733 -2.381,1.57 -4.808,2.507c-2.427,0.939 -4.282,1.866 -5.563,2.782c-2.747,2.015 -4.957,4.407 -6.628,7.177c-1.672,2.771 -2.507,5.392 -2.507,7.864c0,1.511 0.354,3.331 1.065,5.46c0.71,2.13 1.064,3.446 1.064,3.95l0,0.48l-0.137,0.618c-2.015,-0.137 -3.606,-1.315 -4.773,-3.536c-1.168,-2.221 -1.752,-5.186 -1.752,-8.895l0,-0.618c-0.367,0.321 -0.721,0.549 -1.064,0.687c-0.344,0.137 -0.722,0.206 -1.133,0.206c-0.413,0 -0.802,-0.035 -1.168,-0.103c-0.368,-0.069 -0.78,-0.172 -1.237,-0.309c0.138,0.504 0.241,0.996 0.31,1.477c0.068,0.48 0.103,0.858 0.103,1.133c0,1.694 -0.664,3.149 -1.992,4.361c-1.329,1.213 -2.909,1.82 -4.739,1.82c-2.885,0 -5.815,-1.408 -8.791,-4.224c-2.978,-2.816 -4.465,-5.574 -4.465,-8.276c0,-0.504 0.057,-0.95 0.172,-1.339c0.113,-0.389 0.309,-0.722 0.584,-0.996Zm49.176,-28.023c4.121,0.78 7.028,2.519 8.722,5.22c1.694,2.703 2.542,6.961 2.542,12.775c0,11.539 -3.469,20.983 -10.406,28.331c-6.937,7.349 -15.808,11.023 -26.614,11.023c-4.258,0 -8.39,-0.767 -12.397,-2.301c-4.007,-1.534 -7.452,-3.674 -10.336,-6.421c-3.297,-3.022 -5.77,-6.215 -7.418,-9.581c-1.649,-3.365 -2.473,-6.81 -2.473,-10.337c0,-3.937 0.847,-6.981 2.542,-9.134c1.693,-2.152 4.371,-3.617 8.035,-4.396c-0.686,-1.602 -1.191,-2.953 -1.511,-4.052c-0.32,-1.099 -0.48,-1.946 -0.48,-2.541c0,-2.061 1.087,-4.166 3.262,-6.319c2.174,-2.152 4.224,-3.228 6.147,-3.228c0.824,0 1.693,0.149 2.61,0.446c0.916,0.299 1.968,0.79 3.159,1.477c-3.526,-9.982 -6.089,-17.686 -7.692,-23.111c-1.604,-5.426 -2.404,-9.17 -2.404,-11.23c0,-2.839 0.732,-5.093 2.198,-6.765c1.465,-1.671 3.457,-2.507 5.975,-2.507c4.303,0 9.753,9.616 16.346,28.847c1.144,3.296 2.015,5.837 2.61,7.623c0.504,-1.418 1.213,-3.434 2.13,-6.044c6.593,-19.048 12.27,-28.572 17.033,-28.572c2.335,0 4.2,0.79 5.597,2.37c1.397,1.58 2.095,3.698 2.095,6.353c0,2.016 -0.767,5.7 -2.301,11.058c-1.535,5.357 -3.858,12.362 -6.971,21.016Z"/></svg>