<?xml version="1.0" encoding="UTF-8" standalone="no"?><!DOCTYPE svg PUBLIC "-//W3C//DTD SVG 1.1//EN" "http://www.w3.org/Graphics/SVG/1.1/DTD/svg11.dtd"><svg width="100%" height="100%" viewBox="0 0 100 100" version="1.1" xmlns="http://www.w3.org/2000/svg" xmlns:xlink="http://www.w3.org/1999/xlink" xml:space="preserve" style="fill-rule:evenodd;clip-rule:evenodd;stroke-linejoin:round;stroke-miterlimit:1.41421;"><path id="calendar" d="M85,10l-5,0l0,-10l-10,0l0,10l-40,0l0,-10l-10,0l0,10l-5,0c-5.55,0 -9.95,4.5 -9.95,10l-0.05,70c0,5.5 4.45,10 10,10l70,0c5.5,0 10,-4.5 10,-10l0,-70c0,-5.5 -4.5,-10 -10,-10Zm0,80l-70,0l0,-55l70,0l0,55Zm-60,-45l25,0l0,25l-25,0l0,-25Z" style="fill:#444;"/></svg>