<?xml version="1.0" encoding="UTF-8" standalone="no"?><!DOCTYPE svg PUBLIC "-//W3C//DTD SVG 1.1//EN" "http://www.w3.org/Graphics/SVG/1.1/DTD/svg11.dtd"><svg width="100%" height="100%" viewBox="0 0 100 100" version="1.1" xmlns="http://www.w3.org/2000/svg" xmlns:xlink="http://www.w3.org/1999/xlink" xml:space="preserve" style="fill-rule:evenodd;clip-rule:evenodd;stroke-linejoin:round;stroke-miterlimit:1.41421;"><g id="org-chart"><path d="M18.799,62.425c0.827,0.016 1.651,0.078 2.469,0.203c1.66,0.254 3.283,0.746 4.805,1.457c1.807,0.844 3.468,1.996 4.895,3.389c1.426,1.392 2.615,3.023 3.503,4.808c0.745,1.5 1.276,3.105 1.571,4.754c0.331,1.849 0.366,3.751 0.105,5.611c-0.253,1.809 -0.789,3.576 -1.582,5.221c-0.927,1.923 -2.204,3.675 -3.75,5.148c-1.601,1.527 -3.486,2.751 -5.535,3.589c-2.124,0.868 -4.414,1.314 -6.709,1.314c-2.295,0 -4.584,-0.446 -6.709,-1.314c-2.048,-0.838 -3.933,-2.062 -5.534,-3.589c-1.546,-1.473 -2.823,-3.225 -3.75,-5.148c-0.794,-1.645 -1.329,-3.412 -1.582,-5.221c-0.261,-1.86 -0.226,-3.762 0.105,-5.611c0.295,-1.649 0.826,-3.254 1.571,-4.754c0.888,-1.785 2.077,-3.416 3.503,-4.808c1.427,-1.393 3.088,-2.545 4.895,-3.389c1.522,-0.711 3.145,-1.203 4.805,-1.457c0.818,-0.125 1.642,-0.187 2.468,-0.203c0.229,-0.002 0.228,-0.002 0.456,0Zm-0.324,10.352c-0.347,0.007 -0.692,0.033 -1.034,0.085c-0.687,0.105 -1.359,0.309 -1.989,0.603c-1.404,0.656 -2.586,1.758 -3.342,3.11c-0.337,0.602 -0.589,1.252 -0.744,1.924c-0.205,0.886 -0.244,1.811 -0.117,2.711c0.1,0.719 0.309,1.423 0.616,2.081c0.378,0.809 0.904,1.547 1.543,2.17c0.66,0.645 1.44,1.166 2.29,1.526c0.907,0.384 1.889,0.579 2.873,0.579c0.955,0 1.907,-0.183 2.791,-0.544c0.855,-0.35 1.641,-0.862 2.309,-1.499c0.646,-0.616 1.181,-1.347 1.569,-2.152c0.314,-0.653 0.531,-1.352 0.641,-2.069c0.133,-0.869 0.111,-1.763 -0.065,-2.624c-0.139,-0.678 -0.375,-1.334 -0.697,-1.946c-0.738,-1.397 -1.925,-2.543 -3.348,-3.229c-0.625,-0.301 -1.293,-0.513 -1.978,-0.626c-0.34,-0.057 -0.684,-0.087 -1.029,-0.098c-0.096,-0.002 -0.193,-0.002 -0.289,-0.002Z" style="fill:#444;fill-rule:nonzero;"/><path d="M81.657,62.425c0.826,0.016 1.65,0.078 2.468,0.203c1.66,0.254 3.283,0.746 4.805,1.457c1.807,0.844 3.468,1.996 4.895,3.389c1.426,1.392 2.616,3.023 3.503,4.808c0.746,1.5 1.276,3.105 1.571,4.754c0.331,1.849 0.366,3.751 0.105,5.611c-0.253,1.809 -0.788,3.576 -1.582,5.221c-0.927,1.923 -2.204,3.675 -3.75,5.148c-1.601,1.527 -3.486,2.751 -5.534,3.589c-2.125,0.868 -4.414,1.314 -6.709,1.314c-2.295,0 -4.585,-0.446 -6.709,-1.314c-2.049,-0.838 -3.934,-2.062 -5.535,-3.589c-1.546,-1.473 -2.823,-3.225 -3.75,-5.148c-0.793,-1.645 -1.329,-3.412 -1.582,-5.221c-0.261,-1.86 -0.226,-3.762 0.105,-5.611c0.295,-1.649 0.826,-3.255 1.572,-4.755c0.887,-1.784 2.076,-3.415 3.502,-4.807c1.427,-1.393 3.088,-2.545 4.895,-3.389c1.522,-0.711 3.145,-1.203 4.805,-1.457c0.818,-0.125 1.642,-0.187 2.469,-0.203c0.228,-0.002 0.228,-0.002 0.456,0Zm-0.325,10.352c-0.347,0.007 -0.691,0.033 -1.034,0.085c-0.687,0.105 -1.359,0.309 -1.989,0.603c-1.404,0.656 -2.586,1.758 -3.342,3.11c-0.337,0.602 -0.589,1.252 -0.744,1.924c-0.205,0.886 -0.243,1.811 -0.117,2.711c0.1,0.719 0.309,1.423 0.616,2.081c0.378,0.809 0.904,1.547 1.543,2.17c0.66,0.645 1.44,1.166 2.29,1.526c0.907,0.384 1.889,0.579 2.874,0.579c0.954,0 1.906,-0.183 2.79,-0.544c0.855,-0.35 1.641,-0.862 2.309,-1.499c0.646,-0.616 1.181,-1.347 1.569,-2.151c0.315,-0.654 0.531,-1.353 0.641,-2.07c0.133,-0.869 0.112,-1.763 -0.065,-2.624c-0.139,-0.678 -0.374,-1.334 -0.697,-1.946c-0.738,-1.397 -1.925,-2.543 -3.347,-3.229c-0.626,-0.301 -1.294,-0.513 -1.978,-0.626c-0.341,-0.057 -0.684,-0.087 -1.029,-0.098c-0.097,-0.002 -0.194,-0.002 -0.29,-0.002Z" style="fill:#444;fill-rule:nonzero;"/><path d="M50.228,2.082c0.827,0.016 1.65,0.078 2.468,0.203c1.661,0.254 3.284,0.746 4.806,1.457c1.807,0.845 3.468,1.996 4.895,3.389c1.425,1.392 2.615,3.023 3.502,4.808c0.746,1.5 1.277,3.105 1.572,4.754c0.33,1.849 0.365,3.751 0.105,5.611c-0.253,1.809 -0.789,3.576 -1.582,5.221c-0.928,1.924 -2.205,3.675 -3.75,5.148c-1.601,1.527 -3.487,2.751 -5.535,3.589c-2.124,0.868 -4.414,1.315 -6.709,1.315c-2.295,0 -4.585,-0.447 -6.709,-1.315c-2.048,-0.838 -3.934,-2.062 -5.535,-3.589c-1.545,-1.473 -2.822,-3.224 -3.75,-5.148c-0.793,-1.645 -1.328,-3.412 -1.582,-5.221c-0.26,-1.86 -0.225,-3.762 0.105,-5.611c0.295,-1.649 0.826,-3.254 1.572,-4.754c0.887,-1.785 2.077,-3.416 3.502,-4.808c1.427,-1.393 3.088,-2.544 4.895,-3.389c1.522,-0.711 3.145,-1.203 4.806,-1.457c0.818,-0.125 1.641,-0.187 2.468,-0.203c0.228,-0.001 0.228,-0.001 0.456,0Zm-0.325,10.352c-0.346,0.007 -0.691,0.033 -1.034,0.085c-0.687,0.105 -1.358,0.309 -1.988,0.603c-1.377,0.643 -2.541,1.715 -3.299,3.032c-0.359,0.624 -0.626,1.301 -0.788,2.002c-0.204,0.886 -0.243,1.811 -0.117,2.711c0.101,0.72 0.309,1.423 0.617,2.081c0.378,0.809 0.904,1.547 1.542,2.171c0.661,0.644 1.44,1.165 2.29,1.525c0.878,0.372 1.825,0.567 2.777,0.579c0.987,0.012 1.974,-0.17 2.888,-0.544c0.854,-0.35 1.64,-0.862 2.309,-1.499c0.646,-0.616 1.18,-1.347 1.568,-2.151c0.315,-0.654 0.532,-1.353 0.641,-2.07c0.133,-0.869 0.112,-1.763 -0.064,-2.624c-0.139,-0.677 -0.375,-1.334 -0.698,-1.946c-0.737,-1.397 -1.924,-2.542 -3.347,-3.228c-0.625,-0.302 -1.293,-0.514 -1.978,-0.627c-0.341,-0.057 -0.684,-0.087 -1.029,-0.098c-0.097,-0.002 -0.193,-0.002 -0.29,-0.002Z" style="fill:#444;fill-rule:nonzero;"/><path d="M81.782,44.836c0.117,0.012 0.235,0.02 0.351,0.036c0.351,0.048 0.696,0.132 1.029,0.25c0.667,0.237 1.283,0.612 1.8,1.095c0.603,0.564 1.068,1.271 1.344,2.05c0.119,0.333 0.203,0.678 0.251,1.028c0.043,0.312 0.037,0.391 0.048,0.705l0,16.762c-0.011,0.314 -0.005,0.393 -0.048,0.705c-0.113,0.818 -0.423,1.605 -0.899,2.28c-0.34,0.482 -0.763,0.904 -1.244,1.244c-0.385,0.272 -0.808,0.491 -1.252,0.648c-0.444,0.158 -0.91,0.255 -1.38,0.287c-1.3,0.089 -2.609,-0.326 -3.62,-1.149c-0.549,-0.446 -1.004,-1.005 -1.33,-1.634c-0.271,-0.523 -0.451,-1.092 -0.532,-1.676c-0.043,-0.312 -0.037,-0.391 -0.048,-0.705l0,-11.586l-52.504,0l0,11.586c-0.011,0.314 -0.005,0.393 -0.048,0.705c-0.081,0.584 -0.261,1.153 -0.532,1.676c-0.326,0.629 -0.781,1.188 -1.33,1.634c-0.457,0.372 -0.978,0.665 -1.533,0.862c-0.444,0.158 -0.91,0.255 -1.38,0.287c-0.471,0.032 -0.945,0 -1.407,-0.096c-1.276,-0.265 -2.424,-1.018 -3.176,-2.083c-0.476,-0.675 -0.786,-1.462 -0.899,-2.28c-0.043,-0.312 -0.037,-0.391 -0.048,-0.705l0,-16.762c0.011,-0.314 0.005,-0.393 0.048,-0.705c0.048,-0.35 0.132,-0.695 0.251,-1.028c0.237,-0.667 0.611,-1.283 1.094,-1.8c0.564,-0.604 1.272,-1.068 2.05,-1.345c0.333,-0.118 0.678,-0.202 1.029,-0.25c0.311,-0.043 0.391,-0.038 0.704,-0.048l62.858,0c0.117,0.004 0.235,0.008 0.353,0.012Z" style="fill:#444;fill-rule:nonzero;"/><path d="M50.185,27.227c0.185,0.01 0.368,0.023 0.552,0.049c0.366,0.053 0.726,0.145 1.072,0.274c0.693,0.258 1.328,0.667 1.851,1.19c0.523,0.523 0.932,1.158 1.19,1.851c0.151,0.404 0.251,0.827 0.297,1.256c0.02,0.184 0.026,0.368 0.029,0.553l0,16.762c-0.004,0.247 -0.017,0.492 -0.052,0.737c-0.07,0.487 -0.211,0.965 -0.415,1.413c-0.282,0.617 -0.685,1.177 -1.182,1.639c-0.451,0.419 -0.977,0.758 -1.546,0.993c-0.512,0.213 -1.059,0.342 -1.612,0.381c-0.738,0.053 -1.485,-0.054 -2.178,-0.313c-0.693,-0.259 -1.328,-0.667 -1.851,-1.19c-0.349,-0.348 -0.647,-0.747 -0.883,-1.179c-0.296,-0.541 -0.493,-1.134 -0.581,-1.744c-0.035,-0.245 -0.048,-0.49 -0.052,-0.737l0,-16.762c0.003,-0.185 0.009,-0.369 0.029,-0.553c0.046,-0.429 0.146,-0.852 0.297,-1.256c0.258,-0.693 0.667,-1.328 1.19,-1.851c0.523,-0.523 1.158,-0.932 1.851,-1.19c0.346,-0.129 0.706,-0.221 1.072,-0.274c0.184,-0.026 0.367,-0.039 0.552,-0.049c0.185,-0.003 0.185,-0.003 0.37,0Z" style="fill:#444;fill-rule:nonzero;"/></g></svg>