<?xml version="1.0" encoding="UTF-8" standalone="no"?><!DOCTYPE svg PUBLIC "-//W3C//DTD SVG 1.1//EN" "http://www.w3.org/Graphics/SVG/1.1/DTD/svg11.dtd"><svg viewBox="0 0 48 48" version="1.1" xmlns="http://www.w3.org/2000/svg" xmlns:xlink="http://www.w3.org/1999/xlink" xml:space="preserve" style="fill-rule:evenodd;clip-rule:evenodd;stroke-linejoin:round;stroke-miterlimit:1.41421;"><path d="M4.56,24c0,-4.104 3.336,-7.44 7.44,-7.44l9.6,0l0,-4.56l-9.6,0c-6.624,0 -12,5.376 -12,12c0,6.624 5.376,12 12,12l9.6,0l0,-4.56l-9.6,0c-4.104,0 -7.44,-3.336 -7.44,-7.44ZM14.4,26.4l19.2,0l0,-4.8l-19.2,0l0,4.8ZM36,12l-9.6,0l0,4.56l9.6,0c4.104,0 7.44,3.336 7.44,7.44c0,4.104 -3.336,7.44 -7.44,7.44l-9.6,0l0,4.56l9.6,0c6.624,0 12,-5.376 12,-12c0,-6.624 -5.376,-12 -12,-12Z" style="fill:#000;fill-rule:nonzero;"/></svg>