<?xml version="1.0" encoding="UTF-8" standalone="no"?><!DOCTYPE svg PUBLIC "-//W3C//DTD SVG 1.1//EN" "http://www.w3.org/Graphics/SVG/1.1/DTD/svg11.dtd"><svg viewBox="0 0 48 48" version="1.1" xmlns="http://www.w3.org/2000/svg" xmlns:xlink="http://www.w3.org/1999/xlink" xml:space="preserve" style="fill-rule:evenodd;clip-rule:evenodd;stroke-linejoin:round;stroke-miterlimit:1.41421;"><g id="Imported-Layers"><path id="Fill-1" d="M23.572,24.64c0.641,-0.262 1.331,-0.428 1.993,-0.716c-0.306,-0.562 -0.601,-1.209 -0.869,-1.729c-0.096,-0.191 -0.164,-0.426 -0.345,-0.549c-4.268,1.204 -8.999,1.956 -14.522,1.941c-0.112,4.337 1.507,7.362 3.642,9.657c2.464,-3.708 5.74,-6.821 10.101,-8.604" style="fill:#eb4c89;"/><path id="Fill-2" d="M26.475,26.284c-4.916,1.725 -8.779,4.477 -11.182,8.646c1.616,1.235 3.81,2.302 6.372,2.742c2.823,0.483 5.78,-0.028 7.89,-0.929c-0.635,-3.538 -1.658,-6.901 -2.819,-9.869c-0.075,-0.189 -0.065,-0.454 -0.261,-0.59" style="fill:#eb4c89;"/><path id="Fill-3" d="M17.94,11.523c-3.953,1.919 -6.725,4.988 -7.848,9.66c4.915,-0.056 9.275,-0.649 13.133,-1.729c-1.67,-2.735 -3.348,-5.458 -5.285,-7.931" style="fill:#eb4c89;"/><path id="Fill-4" d="M24.001,0c-13.258,0 -24.001,10.747 -24.001,24.001c0,13.253 10.743,23.999 24.001,23.999c12.083,0 22.078,-8.933 23.748,-20.554c0.164,-0.794 0.24,-1.611 0.226,-2.452c0.013,-0.331 0.025,-0.663 0.025,-0.993c0,-13.254 -10.745,-24.001 -23.999,-24.001ZM36.271,35.276c-1.324,1.449 -2.898,2.614 -4.768,3.555c-1.86,0.936 -3.983,1.656 -6.5,1.778c-5.307,0.257 -9.462,-1.783 -12.226,-4.333c-2.848,-2.628 -4.998,-6.148 -5.374,-11.226c-0.199,-2.7 0.332,-5.086 1.128,-7.109c0.826,-2.102 1.808,-3.677 3.162,-5.157c1.896,-2.069 4.474,-3.87 7.715,-4.767c1.165,-0.323 2.377,-0.53 3.6,-0.608c5.427,-0.35 9.437,1.836 12.263,4.377c2.818,2.53 5.034,6.207 5.333,11.269c0.319,5.325 -1.728,9.38 -4.333,12.221Z" style="fill:#eb4c89;"/><path id="Fill-5" d="M29.208,25.609c1.095,3.097 2.103,6.275 2.731,9.827c0.784,-0.426 1.481,-1.019 2.124,-1.646c1.961,-1.908 3.409,-4.385 3.985,-7.589c-2.441,-0.694 -5.865,-1.05 -8.84,-0.592" style="fill:#eb4c89;"/><path id="Fill-6" d="M26.043,18.652c2.969,-1.173 5.61,-2.666 7.366,-5.019c-2.332,-1.909 -5.693,-3.634 -9.968,-3.416c-1.037,0.052 -1.802,0.127 -2.73,0.337c1.594,2.278 3.296,4.642 4.681,7.044c0.204,0.347 0.341,0.759 0.651,1.054" style="fill:#eb4c89;"/><path id="Fill-7" d="M27.083,20.76c0.334,0.632 0.67,1.339 0.956,1.982c0.1,0.235 0.144,0.51 0.346,0.676c3.295,-0.358 6.958,-0.091 9.838,0.465c-0.112,-3.787 -1.403,-6.423 -3.207,-8.563c-2.061,2.38 -4.792,4.11 -7.933,5.44" style="fill:#eb4c89;"/></g></svg>