<?xml version="1.0" encoding="UTF-8" standalone="no"?><!DOCTYPE svg PUBLIC "-//W3C//DTD SVG 1.1//EN" "http://www.w3.org/Graphics/SVG/1.1/DTD/svg11.dtd"><svg viewBox="0 0 48 48" version="1.1" xmlns="http://www.w3.org/2000/svg" xmlns:xlink="http://www.w3.org/1999/xlink" xml:space="preserve" style="fill-rule:evenodd;clip-rule:evenodd;stroke-linejoin:round;stroke-miterlimit:1.41421;"><g id="filters"><path id="Shape" d="M28.676,8.479l0,3.525l-21.436,0l-7.24,0l0,-3.525l28.676,0Z" style="fill:#524b7a;"/><path id="Shape1" d="M21.905,21.078l0,3.525l-21.905,0l0,-3.525l21.905,0Z" style="fill:#524b7a;"/><path id="Shape2" d="M2.697,33.677l11.649,0l0,3.525l-14.346,0l0,-3.525c0,0 1.798,0 2.697,0Z" style="fill:#524b7a;"/><path id="Shape3" d="M48,32.104l-10.976,7.417l-10.977,-7.417l1.603,-2.34l7.611,5.223l0,-1.438l0,-25.07l3.525,0l0,26.508l1.186,-0.813l6.425,-4.41l1.603,2.34Z" style="fill:#524b7a;"/></g></svg>