<?xml version="1.0" encoding="UTF-8" standalone="no"?><!DOCTYPE svg PUBLIC "-//W3C//DTD SVG 1.1//EN" "http://www.w3.org/Graphics/SVG/1.1/DTD/svg11.dtd"><svg viewBox="0 0 48 48" version="1.1" xmlns="http://www.w3.org/2000/svg" xmlns:xlink="http://www.w3.org/1999/xlink" xml:space="preserve" style="fill-rule:evenodd;clip-rule:evenodd;stroke-linejoin:round;stroke-miterlimit:1.41421;"><path d="M24,0c-13.26,0 -24,11.012 -24,24.607c0,10.889 6.87,20.086 16.41,23.346c1.2,0.215 1.65,-0.523 1.65,-1.169c0,-0.584 -0.03,-2.522 -0.03,-4.583c-6.03,1.138 -7.59,-1.507 -8.07,-2.891c-0.27,-0.708 -1.44,-2.892 -2.46,-3.476c-0.84,-0.461 -2.04,-1.599 -0.03,-1.63c1.89,-0.031 3.24,1.784 3.69,2.522c2.16,3.722 5.61,2.676 6.99,2.03c0.21,-1.599 0.84,-2.676 1.53,-3.291c-5.34,-0.615 -10.92,-2.738 -10.92,-12.15c0,-2.676 0.93,-4.89 2.46,-6.613c-0.24,-0.615 -1.08,-3.137 0.24,-6.521c0,0 2.01,-0.646 6.6,2.522c1.92,-0.553 3.96,-0.83 6,-0.83c2.04,0 4.08,0.277 6,0.83c4.59,-3.199 6.6,-2.522 6.6,-2.522c1.32,3.384 0.48,5.906 0.24,6.521c1.53,1.723 2.46,3.906 2.46,6.613c0,9.443 -5.61,11.535 -10.95,12.15c0.87,0.769 1.62,2.245 1.62,4.552c0,3.291 -0.03,5.937 -0.03,6.767c0,0.646 0.45,1.415 1.65,1.169c9.48,-3.26 16.35,-12.488 16.35,-23.346c0,-13.595 -10.74,-24.607 -24,-24.607Z" style="fill:#000;fill-rule:nonzero;"/></svg>