<?xml version="1.0" encoding="UTF-8"?>
<svg width="21px" height="21px" viewBox="0 0 21 21" version="1.1" xmlns="http://www.w3.org/2000/svg" xmlns:xlink="http://www.w3.org/1999/xlink">
    <!-- Generator: Sketch 42 (36781) - http://www.bohemiancoding.com/sketch -->
    <title>glassdoor</title>
    <desc>Created with Sketch.</desc>
    <defs>
        <path d="M1.13841228e-17,9.83848822 C0.32414379,4.51643878 4.61171399,0.265172902 9.95058705,0 L11.0099967,3.03090886e-14 C16.5628477,0.275819914 20.9803125,4.8642756 20.9803125,10.486875 C20.9803125,16.2858281 16.2805781,20.986875 10.4803125,20.986875 C4.8990701,20.986875 0.334843811,16.6334017 0,11.135311 L2.85286118e-15,9.83848822 L1.13841228e-17,9.83848822 Z" id="path-1"></path>
    </defs>
    <g id="Page-1" stroke="none" stroke-width="1" fill="none" fill-rule="evenodd">
        <g id="glassdoor">
            <mask id="mask-2" fill="white">
                <use xlink:href="#path-1"></use>
            </mask>
            <use id="Clip-2" fill="#81B023" xlink:href="#path-1"></use>
            <path d="M7,6.13256604 L7,15.8551372 C7,16.5119943 7.66771427,16.9625657 8.27028568,16.7074229 L13.3514284,14.5957087 C13.8291427,14.3948515 14.1439998,13.9279944 14.1439998,13.4068515 L14.1439998,7.2942803 L12.9714284,7.22370887 L12.9714284,12.793423 C12.9714284,13.2059944 12.7162855,13.5751373 12.330857,13.7108515 L9.11171422,14.8779944 L9.11171422,7.16399459 C9.11171422,6.70256603 9.5134285,6.34428032 9.96942849,6.39313746 L14.1494284,6.86542317 L14.1494284,6.10542319 L8.3408571,5.01970893 C7.64057141,4.88942322 7,5.42142321 7,6.13256604 Z" id="door" fill="#FFFFFF" fill-rule="nonzero" mask="url(#mask-2)"></path>
        </g>
    </g>
</svg>