<?xml version="1.0" encoding="UTF-8"?>
<svg width="21px" height="21px" viewBox="0 0 21 21" version="1.1" xmlns="http://www.w3.org/2000/svg" xmlns:xlink="http://www.w3.org/1999/xlink">
    <!-- Generator: Sketch 42 (36781) - http://www.bohemiancoding.com/sketch -->
    <title>activity-team</title>
    <desc>Created with Sketch.</desc>
    <defs></defs>
    <g id="Page-1" stroke="none" stroke-width="1" fill="none" fill-rule="evenodd">
        <g id="CompD-Base" transform="translate(-392.000000, -271.000000)">
            <g id="activity-team" transform="translate(392.000000, 271.000000)">
                <circle id="Oval" fill="#72CEAA" cx="10.5" cy="10.5" r="10.5"></circle>
                <path d="M17.5,8.27272727 C17.5,8.97272727 16.9272727,9.54545455 16.2272727,9.54545455 C16.1127273,9.54545455 16.0045455,9.53272727 15.9027273,9.50090909 L13.6372727,11.76 C13.6690909,11.8618182 13.6818182,11.9763636 13.6818182,12.0909091 C13.6818182,12.7909091 13.1090909,13.3636364 12.4090909,13.3636364 C11.7090909,13.3636364 11.1363636,12.7909091 11.1363636,12.0909091 C11.1363636,11.9763636 11.1490909,11.8618182 11.1809091,11.76 L9.55818182,10.1372727 C9.45636364,10.1690909 9.34181818,10.1818182 9.22727273,10.1818182 C9.11272727,10.1818182 8.99818182,10.1690909 8.89636364,10.1372727 L6.00090909,13.0390909 C6.03272727,13.1409091 6.04545455,13.2490909 6.04545455,13.3636364 C6.04545455,14.0636364 5.47272727,14.6363636 4.77272727,14.6363636 C4.07272727,14.6363636 3.5,14.0636364 3.5,13.3636364 C3.5,12.6636364 4.07272727,12.0909091 4.77272727,12.0909091 C4.88727273,12.0909091 4.99545455,12.1036364 5.09727273,12.1354545 L7.99909091,9.24 C7.96727273,9.13818182 7.95454545,9.02363636 7.95454545,8.90909091 C7.95454545,8.20909091 8.52727273,7.63636364 9.22727273,7.63636364 C9.92727273,7.63636364 10.5,8.20909091 10.5,8.90909091 C10.5,9.02363636 10.4872727,9.13818182 10.4554545,9.24 L12.0781818,10.8627273 C12.18,10.8309091 12.2945455,10.8181818 12.4090909,10.8181818 C12.5236364,10.8181818 12.6381818,10.8309091 12.74,10.8627273 L14.9990909,8.59727273 C14.9672727,8.49545455 14.9545455,8.38727273 14.9545455,8.27272727 C14.9545455,7.57272727 15.5272727,7 16.2272727,7 C16.9272727,7 17.5,7.57272727 17.5,8.27272727 Z" id="Shape" fill="#FFFFFF" fill-rule="nonzero"></path>
            </g>
        </g>
    </g>
</svg>