<?xml version="1.0" encoding="UTF-8" standalone="no"?><!DOCTYPE svg PUBLIC "-//W3C//DTD SVG 1.1//EN" "http://www.w3.org/Graphics/SVG/1.1/DTD/svg11.dtd"><svg width="100%" height="100%" viewBox="0 0 100 100" version="1.1" xmlns="http://www.w3.org/2000/svg" xmlns:xlink="http://www.w3.org/1999/xlink" xml:space="preserve" style="fill-rule:evenodd;clip-rule:evenodd;stroke-linejoin:round;stroke-miterlimit:1.41421;"><path id="Shape" d="M50,25l0,-20l-50,0l0,90l100,0l0,-70l-50,0Zm-30,60l-10,0l0,-10l10,0l0,10Zm0,-20l-10,0l0,-10l10,0l0,10Zm0,-20l-10,0l0,-10l10,0l0,10Zm0,-20l-10,0l0,-10l10,0l0,10Zm20,60l-10,0l0,-10l10,0l0,10Zm0,-20l-10,0l0,-10l10,0l0,10Zm0,-20l-10,0l0,-10l10,0l0,10Zm0,-20l-10,0l0,-10l10,0l0,10Zm50,60l-40,0l0,-10l10,0l0,-10l-10,0l0,-10l10,0l0,-10l-10,0l0,-10l40,0l0,50Zm-10,-40l-10,0l0,10l10,0l0,-10Zm0,20l-10,0l0,10l10,0l0,-10Z" style="fill:#444;"/></svg>