<svg viewBox="0 0 100 100" version="1.1" xmlns="http://www.w3.org/2000/svg" xmlns:xlink="http://www.w3.org/1999/xlink" xml:space="preserve" style="fill-rule:evenodd;clip-rule:evenodd;stroke-linejoin:round;stroke-miterlimit:1.41421;">
    <g>
    <path
        d="M50.645,0.001c2.333,0.046 4.656,0.223 6.964,0.573c4.672,0.715 9.237,2.1 13.523,4.099c9.841,4.595 18.048,12.417 23.115,22.024c2.293,4.342 3.932,9.019 4.855,13.843c1.04,5.407 1.177,10.992 0.411,16.445c-0.71,5.092 -2.217,10.063 -4.449,14.695c-2.612,5.422 -6.208,10.357 -10.566,14.512c-4.514,4.301 -9.825,7.75 -15.597,10.109c-5.986,2.445 -12.438,3.698 -18.9,3.698c-6.468,0 -12.915,-1.253 -18.9,-3.698c-5.773,-2.359 -11.089,-5.808 -15.598,-10.109c-4.357,-4.155 -7.959,-9.09 -10.571,-14.512c-2.232,-4.632 -3.733,-9.603 -4.448,-14.695c-0.761,-5.453 -0.624,-11.038 0.41,-16.445c0.924,-4.824 2.567,-9.501 4.86,-13.843c5.067,-9.607 13.274,-17.429 23.115,-22.024c4.281,-1.999 8.846,-3.384 13.523,-4.099c2.308,-0.35 4.631,-0.527 6.964,-0.573l1.289,0ZM49.463,8.695c-1.928,0.041 -3.85,0.183 -5.757,0.477c-3.86,0.588 -7.624,1.73 -11.16,3.378c-8.131,3.794 -14.918,10.267 -19.102,18.2c-1.892,3.586 -3.247,7.446 -4.008,11.423c-0.857,4.474 -0.973,9.095 -0.339,13.61c0.588,4.2 1.826,8.303 3.667,12.123c2.161,4.479 5.138,8.562 8.74,11.991c3.723,3.556 8.116,6.406 12.884,8.354c4.945,2.024 10.271,3.054 15.613,3.054c5.341,0 10.667,-1.03 15.613,-3.054c4.768,-1.948 9.155,-4.798 12.884,-8.354c3.601,-3.429 6.579,-7.512 8.734,-11.991c1.842,-3.82 3.084,-7.923 3.673,-12.123c0.629,-4.515 0.517,-9.136 -0.34,-13.61c-0.761,-3.977 -2.115,-7.837 -4.007,-11.423c-4.19,-7.933 -10.972,-14.406 -19.103,-18.2c-3.536,-1.648 -7.304,-2.79 -11.159,-3.378c-1.908,-0.294 -3.83,-0.436 -5.763,-0.477c-0.537,0 -0.532,0 -1.07,0l0,0Z"
        style="fill:#3497FF;fill-rule:nonzero;"/>
      <rect id="Rectangle" fill="#3497FF" x="45" y="30" width="10" height="10"></rect>
      <rect id="Rectangle-2" fill="#3497FF" x="45" y="45" width="10" height="30"></rect>
    </g>
</svg>
