<?xml version="1.0" encoding="UTF-8"?>
<svg width="29px" height="29px" viewBox="0 0 29 29" version="1.1" xmlns="http://www.w3.org/2000/svg" xmlns:xlink="http://www.w3.org/1999/xlink">
    <!-- Generator: Sketch 42 (36781) - http://www.bohemiancoding.com/sketch -->
    <title>question-mark-pervorse</title>
    <desc>Created with Sketch.</desc>
    <defs></defs>
    <g id="Page-1" stroke="none" stroke-width="1" fill="none" fill-rule="evenodd">
        <g id="question-mark-pervorse" fill="#3497FF">
            <path d="M13.625,18.5762 C12.436,18.5762 11.754,19.2712 11.754,20.4832 C11.754,21.0672 11.919,21.5392 12.244,21.8852 C12.579,22.2402 13.043,22.4202 13.625,22.4202 C14.207,22.4202 14.673,22.2362 15.012,21.8732 C15.338,21.5222 15.504,21.0552 15.504,20.4832 C15.504,19.9062 15.338,19.4402 15.01,19.0972 C14.676,18.7512 14.21,18.5762 13.625,18.5762" id="Fill-1"></path>
            <path d="M14.2019,6.4245 C12.6819,6.4245 11.2349,6.7995 9.9029,7.5405 L9.4929,7.7685 L10.6959,10.2895 L11.1509,10.0665 C11.6109,9.8395 12.0859,9.6445 12.5629,9.4865 C13.4499,9.1885 14.7169,9.1585 15.2319,9.5695 C15.3749,9.6855 15.5679,9.8965 15.5679,10.3825 C15.5679,10.7315 15.4889,11.0195 15.3289,11.2615 C15.2009,11.4535 14.8679,11.8255 14.0069,12.5045 C13.3239,13.0385 12.8549,13.5485 12.5709,14.0665 C12.2829,14.5905 12.1369,15.2465 12.1369,16.0135 L12.1369,17.1105 L14.9639,17.1105 L14.9639,16.1905 C14.9639,15.7875 15.0349,15.4755 15.1759,15.2615 C15.2879,15.0895 15.5619,14.7745 16.2259,14.2535 C16.9399,13.6965 17.4319,13.2515 17.7319,12.8945 C18.0409,12.5255 18.2779,12.1275 18.4369,11.7095 C18.5939,11.2915 18.6739,10.8145 18.6739,10.2895 C18.6739,9.0895 18.2529,8.1295 17.4219,7.4355 C16.6179,6.7645 15.5349,6.4245 14.2019,6.4245 Z" id="Fill-3"></path>
            <path d="M14.1602,3 C8.0072,3 3.0002,8.007 3.0002,14.16 C3.0002,20.313 8.0072,25.32 14.1602,25.32 C20.3132,25.32 25.3202,20.313 25.3202,14.16 C25.3202,8.007 20.3132,3 14.1602,3 M14.1602,28.32 C6.3522,28.32 0.0002,21.968 0.0002,14.16 C0.0002,6.353 6.3522,0 14.1602,0 C21.9682,0 28.3202,6.353 28.3202,14.16 C28.3202,21.968 21.9682,28.32 14.1602,28.32" id="Fill-5"></path>
        </g>
    </g>
</svg>