<?xml version="1.0" encoding="UTF-8" standalone="no"?><!DOCTYPE svg PUBLIC "-//W3C//DTD SVG 1.1//EN" "http://www.w3.org/Graphics/SVG/1.1/DTD/svg11.dtd"><svg viewBox="0 0 48 48" version="1.1" xmlns="http://www.w3.org/2000/svg" xmlns:xlink="http://www.w3.org/1999/xlink" xml:space="preserve" style="fill-rule:evenodd;clip-rule:evenodd;stroke-linejoin:round;stroke-miterlimit:1.41421;"><path id="Shape" d="M24,0c-13.333,0 -24,10.667 -24,24c0,13.333 10.667,24 24,24c13.333,0 24,-10.667 24,-24c0,-13.333 -10.667,-24 -24,-24ZM17.067,34.933l-5.334,0l0,-16.8l5.334,0l0,16.8ZM14.4,16c-1.6,0 -2.933,-1.333 -2.933,-2.933c0,-1.6 1.333,-2.934 2.933,-2.934c1.6,0 2.933,1.334 2.933,2.934c0.267,1.6 -1.333,2.933 -2.933,2.933ZM36.533,34.933l-5.066,0l0,-8.266c0,-1.867 0,-4.534 -2.667,-4.534c-2.667,0 -3.2,2.134 -3.2,4.267l0,8.267l-5.067,0l0,-16.8l5.067,0l0,2.4c0.8,-1.334 2.4,-2.667 4.8,-2.667c5.333,0 6.133,3.467 6.133,8l0,9.333Z" style="fill:#1c75bb;"/></svg>