<?xml version="1.0" encoding="UTF-8" standalone="no"?><!DOCTYPE svg PUBLIC "-//W3C//DTD SVG 1.1//EN" "http://www.w3.org/Graphics/SVG/1.1/DTD/svg11.dtd"><svg viewBox="0 0 48 48" version="1.1" xmlns="http://www.w3.org/2000/svg" xmlns:xlink="http://www.w3.org/1999/xlink" xml:space="preserve" style="fill-rule:evenodd;clip-rule:evenodd;stroke-linejoin:round;stroke-miterlimit:1.41421;"><path id="Shape" d="M24,0c-8.372,0 -15.182,6.289 -15.182,14.218c0,1.757 0.396,3.675 1.108,5.4l-0.011,0l0.068,0.128c0.057,0.118 0.113,0.236 0.17,0.354l13.847,27.9l13.779,-27.761l0.068,-0.128c0.057,-0.118 0.125,-0.236 0.181,-0.365l0.046,-0.117c0.735,-1.725 1.108,-3.547 1.108,-5.39c0,-7.95 -6.81,-14.239 -15.182,-14.239ZM24,18.739c-2.93,0 -5.306,-2.25 -5.306,-5.025c0,-2.775 2.376,-5.025 5.306,-5.025c2.93,0 5.306,2.25 5.306,5.025c0,2.775 -2.376,5.025 -5.306,5.025Z" style="fill:#000;"/></svg>