<?xml version="1.0" encoding="UTF-8" standalone="no"?><!DOCTYPE svg PUBLIC "-//W3C//DTD SVG 1.1//EN" "http://www.w3.org/Graphics/SVG/1.1/DTD/svg11.dtd"><svg viewBox="0 0 100 100" version="1.1" xmlns="http://www.w3.org/2000/svg" xmlns:xlink="http://www.w3.org/1999/xlink" xml:space="preserve" style="fill-rule:evenodd;clip-rule:evenodd;stroke-linejoin:round;stroke-miterlimit:1.41421;"><g id="locked-2"><path d="M50.645,0.001c2.333,0.046 4.656,0.223 6.964,0.573c4.672,0.715 9.237,2.1 13.523,4.099c9.841,4.595 18.048,12.417 23.115,22.024c2.293,4.342 3.932,9.019 4.855,13.843c1.04,5.407 1.177,10.992 0.411,16.445c-0.71,5.092 -2.217,10.063 -4.449,14.695c-2.612,5.422 -6.208,10.357 -10.566,14.512c-4.514,4.301 -9.825,7.75 -15.597,10.109c-5.986,2.445 -12.438,3.698 -18.9,3.698c-6.468,0 -12.915,-1.253 -18.9,-3.698c-5.773,-2.359 -11.089,-5.808 -15.598,-10.109c-4.357,-4.155 -7.959,-9.09 -10.571,-14.512c-2.232,-4.632 -3.733,-9.603 -4.448,-14.695c-0.761,-5.453 -0.624,-11.038 0.41,-16.445c0.924,-4.824 2.567,-9.501 4.86,-13.843c5.067,-9.607 13.274,-17.429 23.115,-22.024c4.281,-1.999 8.846,-3.384 13.523,-4.099c2.308,-0.35 4.631,-0.527 6.964,-0.573l1.289,0ZM49.463,8.695c-1.928,0.041 -3.85,0.183 -5.757,0.477c-3.86,0.588 -7.624,1.73 -11.16,3.378c-8.131,3.794 -14.918,10.267 -19.102,18.2c-1.892,3.586 -3.247,7.446 -4.008,11.423c-0.857,4.474 -0.973,9.095 -0.339,13.61c0.588,4.2 1.826,8.303 3.667,12.123c2.161,4.479 5.138,8.562 8.74,11.991c3.723,3.556 8.116,6.406 12.884,8.354c4.945,2.024 10.271,3.054 15.613,3.054c5.341,0 10.667,-1.03 15.613,-3.054c4.768,-1.948 9.155,-4.798 12.884,-8.354c3.601,-3.429 6.579,-7.512 8.734,-11.991c1.842,-3.82 3.084,-7.923 3.673,-12.123c0.629,-4.515 0.517,-9.136 -0.34,-13.61c-0.761,-3.977 -2.115,-7.837 -4.007,-11.423c-4.19,-7.933 -10.972,-14.406 -19.103,-18.2c-3.536,-1.648 -7.304,-2.79 -11.159,-3.378c-1.908,-0.294 -3.83,-0.436 -5.763,-0.477c-0.537,0 -0.532,0 -1.07,0l0,0Z" style="fill:#59518b;fill-rule:nonzero;"/><path d="M50.396,25.764c1.953,0.076 3.86,0.456 5.656,1.217c1.502,0.634 2.896,1.507 4.124,2.572c1.126,0.979 2.115,2.115 2.922,3.373c1.379,2.151 2.211,4.641 2.404,7.193c0.188,2.455 -0.223,4.935 -1.045,7.248c-1.07,3.013 -2.866,5.808 -5.326,7.868l3.82,21.811l-0.766,0.918l-24.368,0l-0.771,-0.918l3.819,-21.811c-0.223,-0.188 -0.436,-0.381 -0.654,-0.573c-0.228,-0.224 -0.457,-0.447 -0.68,-0.675c-4.291,-4.621 -6.32,-11.591 -4.261,-17.667c0.406,-1.192 0.954,-2.334 1.634,-3.394c0.74,-1.151 1.628,-2.206 2.642,-3.124c1.203,-1.096 2.572,-1.999 4.053,-2.669c1.776,-0.801 3.663,-1.232 5.605,-1.354c0.396,-0.015 0.797,-0.02 1.192,-0.015ZM48.961,67.819l2.074,0l-1.034,-5.924c-0.35,1.978 -0.695,3.951 -1.04,5.924ZM49.859,35.909c-0.675,0.025 -1.334,0.157 -1.958,0.421c-1.796,0.756 -3.079,2.48 -3.277,4.418c-0.147,1.481 0.294,3.018 0.954,4.332c0.365,0.73 0.821,1.425 1.394,2.008c0.325,0.325 0.69,0.624 1.111,0.812l0.051,0.02l1.867,0.705c0.532,-0.203 1.379,-0.466 2.024,-0.776c0.41,-0.213 0.766,-0.512 1.08,-0.847c0.538,-0.563 0.969,-1.227 1.319,-1.922c0.639,-1.273 1.07,-2.755 0.959,-4.195c-0.137,-1.857 -1.269,-3.541 -2.927,-4.393c-0.553,-0.284 -1.147,-0.456 -1.76,-0.543c-0.279,-0.03 -0.558,-0.045 -0.837,-0.04l0,0Z" style="fill:#59518b;fill-rule:nonzero;"/></g></svg>