<?xml version="1.0" encoding="UTF-8" standalone="no"?><!DOCTYPE svg PUBLIC "-//W3C//DTD SVG 1.1//EN" "http://www.w3.org/Graphics/SVG/1.1/DTD/svg11.dtd"><svg viewBox="0 0 24 24" version="1.1" xmlns="http://www.w3.org/2000/svg" xmlns:xlink="http://www.w3.org/1999/xlink" xml:space="preserve" xmlns:serif="http://www.serif.com/" style="fill-rule:evenodd;clip-rule:evenodd;stroke-linejoin:round;stroke-miterlimit:1.41421;"><g><path d="M12,0c6.623,0 12,5.377 12,12c0,6.623 -5.377,12 -12,12c-6.623,0 -12,-5.377 -12,-12c0,-6.623 5.377,-12 12,-12Zm1.68,3l-3,0l0,2.16c-1.94,0.42 -3.5,1.68 -3.5,3.61c0,2.31 1.91,3.46 4.7,4.13c2.5,0.6 3,1.48 3,2.41c0,0.69 -0.49,1.79 -2.7,1.79c-2.06,0 -2.87,-0.92 -2.98,-2.1l-2.2,0c0.12,2.19 1.76,3.42 3.68,3.83l0,2.17l3,0l0,-2.15c1.95,-0.37 3.5,-1.5 3.5,-3.55c0,-2.84 -2.43,-3.81 -4.7,-4.4c-2.27,-0.59 -3,-1.2 -3,-2.15c0,-1.09 1.01,-1.85 2.7,-1.85c1.78,0 2.44,0.85 2.5,2.1l2.21,0c-0.07,-1.72 -1.12,-3.3 -3.21,-3.81l0,-2.19Z" style="fill:#38bcac;"/></g></svg>
