<?xml version="1.0" encoding="UTF-8" standalone="no"?><!DOCTYPE svg PUBLIC "-//W3C//DTD SVG 1.1//EN" "http://www.w3.org/Graphics/SVG/1.1/DTD/svg11.dtd"><svg width="100%" height="100%" viewBox="0 0 100 100" version="1.1" xmlns="http://www.w3.org/2000/svg" xmlns:xlink="http://www.w3.org/1999/xlink" xml:space="preserve" style="fill-rule:evenodd;clip-rule:evenodd;stroke-linejoin:round;stroke-miterlimit:1.41421;"><path d="M50,0c-27.613,0 -50,22.387 -50,50c0,27.613 22.387,50 50,50c27.613,0 50,-22.387 50,-50c0,-27.613 -22.387,-50 -50,-50ZM50,10.526c8.739,0 16.788,2.874 23.328,7.683l-55.119,55.119c-4.809,-6.54 -7.683,-14.589 -7.683,-23.328c0,-21.8 17.674,-39.474 39.474,-39.474l0,0ZM50,89.474c-7.985,0 -15.406,-2.389 -21.619,-6.466l54.625,-54.626c4.077,6.213 6.466,13.633 6.466,21.62c0.002,21.798 -17.672,39.472 -39.472,39.472l0,0Z" style="fill:#000;fill-rule:nonzero;"/></svg>