
<svg width="18px" height="18px" viewBox="0 0 18 18" version="1.1" xmlns="http://www.w3.org/2000/svg" xmlns:xlink="http://www.w3.org/1999/xlink">
  <g stroke="none" stroke-width="1" fill="none" fill-rule="evenodd" transform="translate(-775.000000, -84.000000)">
    <g transform="translate(0.000000, 72.000000)" fill-rule="nonzero">
      <path d="M792.8665,27.66 L788.10175,22.8945 C788.79925,21.79575 789.202,20.4945 789.202,19.10025 C789.20275,15.186 786.01675,12 782.101,12 C778.18525,12 775,15.186 775,19.101 C775,23.01675 778.18525,26.20275 782.101,26.20275 C783.427,26.20275 784.66675,25.8375 785.73025,25.203 L790.52725,30 L792.8665,27.66 Z M777.646,19.101 C777.646,16.64625 779.64475,14.6475 782.10025,14.6475 C784.5565,14.6475 786.55525,16.6455 786.55525,19.101 C786.55525,21.55725 784.5565,23.55525 782.10025,23.55525 C779.64475,23.55525 777.646,21.55725 777.646,19.101 Z"></path>
    </g>
  </g>
</svg>
