<?xml version="1.0" encoding="UTF-8" standalone="no"?><!DOCTYPE svg PUBLIC "-//W3C//DTD SVG 1.1//EN" "http://www.w3.org/Graphics/SVG/1.1/DTD/svg11.dtd"><svg viewBox="0 0 100 100" version="1.1" xmlns="http://www.w3.org/2000/svg" xmlns:xlink="http://www.w3.org/1999/xlink" xml:space="preserve" style="fill-rule:evenodd;clip-rule:evenodd;stroke-linejoin:round;stroke-miterlimit:1.41421;"><g id="settings"><path id="Shape" d="M50,78.706c-15.861,0 -28.711,-12.856 -28.711,-28.706c0,-15.861 12.85,-28.706 28.711,-28.706c15.861,0 28.706,12.867 28.706,28.706c0.005,15.85 -12.856,28.706 -28.706,28.706ZM89.683,42.267c-1.711,-0.245 -3.527,-1.778 -4.055,-3.411l-2.534,-6.173c-0.8,-1.522 -0.611,-3.894 0.412,-5.266l4.127,-5.495c1.028,-1.378 0.95,-3.555 -0.194,-4.844l-4.517,-4.522c-1.289,-1.134 -3.466,-1.223 -4.85,-0.189l-5.489,4.116c-1.372,1.039 -3.744,1.223 -5.261,0.428l-6.178,-2.544c-1.638,-0.528 -3.177,-2.339 -3.416,-4.045l-0.972,-6.789c-0.245,-1.705 -1.834,-3.244 -3.545,-3.427c0,0 -1.055,-0.106 -3.205,-0.106c-2.139,0 -3.206,0.106 -3.206,0.106c-1.711,0.183 -3.306,1.722 -3.55,3.427l-0.972,6.789c-0.245,1.706 -1.784,3.517 -3.422,4.045l-6.167,2.544c-1.522,0.789 -3.895,0.611 -5.267,-0.428l-5.494,-4.116c-1.378,-1.034 -3.556,-0.95 -4.845,0.183l-4.516,4.528c-1.139,1.289 -1.228,3.466 -0.195,4.844l4.117,5.489c1.039,1.378 1.222,3.75 0.422,5.272l-2.544,6.173c-0.523,1.638 -2.339,3.172 -4.05,3.411l-6.789,0.966c-1.7,0.25 -3.234,1.845 -3.417,3.556c0,0 -0.111,1.067 -0.111,3.211c0,2.15 0.111,3.206 0.111,3.206c0.183,1.722 1.717,3.305 3.417,3.555l6.789,0.961c1.7,0.25 3.527,1.784 4.05,3.422l2.544,6.167c0.8,1.522 0.611,3.9 -0.422,5.267l-4.117,5.494c-1.033,1.372 -1.283,3.245 -0.55,4.139c0.728,0.906 2.817,3.133 2.828,3.145c0,0.005 0.706,0.65 1.561,1.433c0.85,0.778 4.339,1.872 5.717,0.844l5.489,-4.127c1.377,-1.028 3.739,-1.223 5.272,-0.417l6.167,2.539c1.638,0.522 3.177,2.339 3.411,4.044l0.972,6.789c0.244,1.7 1.839,3.25 3.555,3.428c0,0 1.056,0.111 3.206,0.111c2.139,0 3.206,-0.111 3.206,-0.111c1.7,-0.178 3.305,-1.728 3.544,-3.428l0.978,-6.789c0.239,-1.7 1.778,-3.528 3.411,-4.044l6.172,-2.545c1.517,-0.8 3.895,-0.611 5.267,0.423l5.489,4.127c1.383,1.028 3.561,0.945 4.85,-0.194l4.511,-4.517c1.139,-1.3 1.222,-3.478 0.2,-4.85l-4.122,-5.494c-1.028,-1.367 -1.217,-3.745 -0.423,-5.267l2.539,-6.167c0.534,-1.638 2.345,-3.177 4.056,-3.422l6.778,-0.961c1.711,-0.25 3.25,-1.833 3.427,-3.555c0,0 0.117,-1.056 0.117,-3.206c0,-2.144 -0.117,-3.211 -0.117,-3.211c-0.177,-1.711 -1.716,-3.306 -3.427,-3.556l-6.773,-0.966l0,0Z" style="fill:#59518b;"/><circle id="Oval" cx="50" cy="50" r="22.222" style="fill:#524b7a;"/></g></svg>