<?xml version="1.0" encoding="UTF-8" standalone="no"?><!DOCTYPE svg PUBLIC "-//W3C//DTD SVG 1.1//EN" "http://www.w3.org/Graphics/SVG/1.1/DTD/svg11.dtd"><svg viewBox="0 0 48 48" version="1.1" xmlns="http://www.w3.org/2000/svg" xmlns:xlink="http://www.w3.org/1999/xlink" xml:space="preserve" style="fill-rule:evenodd;clip-rule:evenodd;stroke-linejoin:round;stroke-miterlimit:1.41421;"><path id="support" d="M24,0c-13.28,0 -24,10.72 -24,24c0,13.227 10.72,24 24,24c13.28,0 24,-10.773 24,-24c0,-13.28 -10.72,-24 -24,-24ZM23.36,41.173c-1.813,0 -3.253,-1.44 -3.253,-3.253c0,-1.813 1.44,-3.253 3.253,-3.253c1.813,0 3.253,1.493 3.253,3.253c0,1.813 -1.44,3.253 -3.253,3.253ZM28.533,24.48c-1.44,1.493 -2.453,2.613 -2.453,5.067c0,1.493 -1.227,2.72 -2.72,2.72c-1.493,0 -2.72,-1.227 -2.72,-2.72c0,-4.64 2.24,-7.04 3.893,-8.8c1.44,-1.547 2.134,-2.347 2.134,-4.107c0,-1.813 -1.494,-3.307 -3.307,-3.307c-1.813,0 -3.307,1.494 -3.307,3.307c0,1.493 -1.226,2.72 -2.72,2.72c-1.493,0 -2.72,-1.227 -2.72,-2.72c0,-4.8 3.894,-8.693 8.694,-8.693c4.8,0 8.693,3.893 8.693,8.693c0.107,4 -1.867,6.133 -3.467,7.84Z" style="fill:#59518b;"/></svg>