<?xml version="1.0" encoding="UTF-8" standalone="no"?><!DOCTYPE svg PUBLIC "-//W3C//DTD SVG 1.1//EN" "http://www.w3.org/Graphics/SVG/1.1/DTD/svg11.dtd"><svg viewBox="0 0 21 21" version="1.1" xmlns="http://www.w3.org/2000/svg" xmlns:xlink="http://www.w3.org/1999/xlink" xml:space="preserve" xmlns:serif="http://www.serif.com/" style="fill-rule:evenodd;clip-rule:evenodd;stroke-linejoin:round;stroke-miterlimit:1.41421;"><path id="Twitter" d="M10.5,0c5.795,0 10.5,4.705 10.5,10.5c0,5.795 -4.705,10.5 -10.5,10.5c-5.795,0 -10.5,-4.705 -10.5,-10.5c0,-5.795 4.705,-10.5 10.5,-10.5Zm-1.922,16.039c4.657,0 7.204,-3.859 7.204,-7.203c-0.001,-0.111 -0.001,-0.221 -0.006,-0.326c0.494,-0.357 0.924,-0.803 1.265,-1.312c-0.451,0.199 -0.939,0.336 -1.454,0.399c0.525,-0.315 0.924,-0.809 1.113,-1.402c-0.488,0.289 -1.029,0.499 -1.606,0.614c-0.462,-0.493 -1.118,-0.798 -1.848,-0.798c-1.397,0 -2.531,1.134 -2.531,2.531c0,0.199 0.021,0.393 0.069,0.577c-2.106,-0.105 -3.969,-1.113 -5.219,-2.646c-0.215,0.373 -0.341,0.809 -0.341,1.271c0,0.876 0.446,1.653 1.129,2.105c-0.415,-0.011 -0.804,-0.126 -1.145,-0.315l0,0.031c0,1.229 0.872,2.247 2.032,2.484c-0.21,0.057 -0.436,0.089 -0.667,0.089c-0.163,0 -0.32,-0.016 -0.478,-0.047c0.321,1.008 1.255,1.737 2.363,1.758c-0.866,0.678 -1.958,1.082 -3.145,1.082c-0.205,0 -0.404,-0.011 -0.604,-0.037c1.108,0.725 2.442,1.145 3.87,1.145Z" style="fill:#1da1f2;"/></svg>
