<?xml version="1.0" encoding="UTF-8" standalone="no"?><!DOCTYPE svg PUBLIC "-//W3C//DTD SVG 1.1//EN" "http://www.w3.org/Graphics/SVG/1.1/DTD/svg11.dtd"><svg viewBox="0 0 100 100" version="1.1" xmlns="http://www.w3.org/2000/svg" xmlns:xlink="http://www.w3.org/1999/xlink" xml:space="preserve" style="fill-rule:evenodd;clip-rule:evenodd;stroke-linejoin:round;stroke-miterlimit:1.41421;"><path id="visa-status" d="M49.756,0c-27.406,0 -49.756,22.383 -49.756,50c0,27.617 22.35,50 49.756,50c27.405,0 50.244,-22.383 50.244,-50c0,-27.617 -22.833,-50 -50.244,-50ZM89.267,65.639l-13.239,0c0.716,-3.661 1.155,-7.617 1.244,-11.867l14.784,0c-0.362,4.156 -1.323,8.139 -2.789,11.867l0,0ZM92.056,46.25l-14.995,0c-0.317,-4.067 -0.95,-7.933 -1.833,-11.561l14.172,0c1.394,3.639 2.306,7.522 2.656,11.561ZM85.628,27.172l-12.717,0c-3.022,-8.028 -7.328,-14.389 -12.067,-18.389c10.373,2.823 19.173,9.495 24.784,18.389ZM53.739,11.656c4.605,2.133 8.667,7.761 11.483,15.516l-11.483,0l0,-15.516ZM53.739,34.689l13.655,0c0.812,3.6 1.384,7.483 1.667,11.561l-15.322,0l0,-11.561l0,0ZM69.25,53.772c-0.078,4.295 -0.494,8.256 -1.172,11.867l-14.339,0l0,-11.867l15.511,0ZM7.356,53.772l14.633,0c0.089,4.25 0.528,8.206 1.25,11.867l-13.095,0c-1.466,-3.728 -2.422,-7.711 -2.788,-11.867l0,0ZM30.483,53.772l15.506,0l0,11.867l-14.389,0c-0.644,-3.611 -1.044,-7.567 -1.117,-11.867l0,0ZM30.661,46.25c0.272,-4.078 0.817,-7.961 1.589,-11.561l13.739,0l0,11.561l-15.328,0l0,0ZM45.989,11.456l0,15.716l-11.65,0c2.8,-8.011 6.911,-13.744 11.65,-15.716ZM38.35,8.844c-4.711,4 -8.994,10.345 -12,18.328l-12.567,0c5.578,-8.833 14.289,-15.472 24.567,-18.328l0,0ZM10.011,34.689l14.022,0c-0.883,3.628 -1.516,7.494 -1.833,11.561l-14.844,0c0.35,-4.039 1.266,-7.922 2.655,-11.561l0,0ZM13.994,73.161l11.25,0c2.612,7.611 6.562,13.478 11.045,17.361c-9.256,-3.089 -17.095,-9.289 -22.295,-17.361ZM33.467,73.161l12.522,0l0,15.55c-5.261,-1.711 -9.745,-7.172 -12.522,-15.55l0,0ZM53.739,88.556l0,-15.395l12.389,0c-2.811,8.139 -7.261,13.528 -12.389,15.395l0,0ZM62.878,90.606c4.528,-3.878 8.511,-9.778 11.139,-17.445l11.405,0c-5.25,8.145 -13.183,14.383 -22.544,17.445l0,0Z" style="fill:#e9a631;"/></svg>