<?xml version="1.0" encoding="UTF-8" standalone="no"?><!DOCTYPE svg PUBLIC "-//W3C//DTD SVG 1.1//EN" "http://www.w3.org/Graphics/SVG/1.1/DTD/svg11.dtd"><svg width="100%" height="100%" viewBox="0 0 100 100" version="1.1" xmlns="http://www.w3.org/2000/svg" xmlns:xlink="http://www.w3.org/1999/xlink" xml:space="preserve" style="fill-rule:evenodd;clip-rule:evenodd;stroke-linejoin:round;stroke-miterlimit:1.41421;"><path id="Shape" d="M90,22.5l-20,0l0,-10c0,-5.55 -4.45,-10 -10,-10l-20,0c-5.55,0 -10,4.45 -10,10l0,10l-20,0c-5.55,0 -9.95,4.45 -9.95,10l-0.05,55c0,5.55 4.45,10 10,10l80,0c5.55,0 10,-4.45 10,-10l0,-55c0,-5.55 -4.45,-10 -10,-10Zm-30,0l-20,0l0,-10l20,0l0,10Z" style="fill:#444;fill-rule:nonzero;"/></svg>