  <svg class="case-study-block__logo" width="150px" viewBox="0 0 150 189" version="1.1" xmlns="http://www.w3.org/2000/svg" xmlns:xlink="http://www.w3.org/1999/xlink" xml:space="preserve" style="fill-rule:evenodd;clip-rule:evenodd;stroke-linejoin:round;stroke-miterlimit:1.41421;"><g id="via-logo"><g opacity="0.2"><path id="Shape" d="M145.818,98.118c-7.974,8.363 -20.855,8.305 -28.773,-0.058c-1.841,-1.93 -3.235,-4.152 -4.238,-6.492c-1.896,6.2 -5.13,12.048 -9.814,16.96c-15.614,16.434 -40.874,16.434 -56.487,0c-7.751,-8.129 -11.655,-18.831 -11.71,-29.475c-0.056,-4.62 -1.729,-9.24 -5.075,-12.807c-6.803,-7.135 -17.788,-7.135 -24.591,0c-3.346,3.509 -5.018,8.129 -5.074,12.749l-0.056,0c0.112,20.001 7.361,40.002 21.859,55.265c15.055,15.849 52.36,54.564 52.36,54.564c0,0 39.09,-39.651 53.253,-54.564c10.372,-10.936 17.008,-24.211 20.019,-38.247c-0.446,0.702 -1.004,1.462 -1.673,2.105Z" style="fill:#fff;"/><path id="Shape1" d="M149.442,77.942c-0.167,-19.884 -7.472,-39.768 -21.858,-54.915c-29.164,-30.703 -76.45,-30.703 -105.614,0c-10.65,11.229 -17.398,24.972 -20.297,39.359c0.613,-0.877 1.282,-1.755 2.063,-2.515c7.918,-8.363 20.799,-8.363 28.773,0c1.84,1.93 3.234,4.094 4.182,6.433c1.841,-6.316 5.131,-12.281 9.926,-17.252c15.613,-16.434 40.874,-16.434 56.487,0c7.584,8.012 11.487,18.422 11.654,28.89l0,1.638c0.168,4.386 1.841,8.713 5.019,12.105c6.747,7.135 17.788,7.194 24.591,0.059c3.178,-3.334 4.851,-7.661 5.074,-11.989l0,-0.76c0,-0.351 0,-0.702 0,-1.053Z" style="fill:#fff;"/></g></g></svg>
