<?xml version="1.0" encoding="UTF-8" standalone="no"?>
<svg width="398px" height="285px" viewBox="0 0 398 285" version="1.1" xmlns="http://www.w3.org/2000/svg" xmlns:xlink="http://www.w3.org/1999/xlink" xmlns:sketch="http://www.bohemiancoding.com/sketch/ns">
    <!-- Generator: Sketch 3.5.1 (25234) - http://www.bohemiancoding.com/sketch -->
    <title>illo_lost</title>
    <desc>Created with Sketch.</desc>
    <defs></defs>
    <g id="design-elements" stroke="none" stroke-width="1" fill="none" fill-rule="evenodd" sketch:type="MSPage">
        <g id="404_002" sketch:type="MSArtboardGroup" transform="translate(-501.000000, -260.000000)">
            <g id="illo_lost" sketch:type="MSLayerGroup" transform="translate(504.000000, 263.000000)">
                <path d="M0,3 L390,3 L390,273 L0,273 L0,3 Z" id="Fill-1-Copy" fill="#FFF6E5" sketch:type="MSShapeGroup"></path>
                <path d="M353,277.537123 L353,2 L151,2 L151,278 L353,278" id="Fill-5-Copy" fill="#EC724F" sketch:type="MSShapeGroup"></path>
                <rect id="Rectangle-21-Copy-6" stroke="#59518B" stroke-width="8" fill="#FFFFFF" sketch:type="MSShapeGroup" x="187" y="38" width="129" height="173"></rect>
                <circle id="Oval-12" fill="#59518B" sketch:type="MSShapeGroup" cx="251" cy="57" r="3"></circle>
                <path d="M165,1.5 L165,273.5" id="Line" stroke="#FFFFFF" stroke-width="8" stroke-linecap="square" sketch:type="MSShapeGroup"></path>
                <path d="M349,5.5 L349,277.5" id="Line-Copy" stroke="#59518B" stroke-width="8" stroke-linecap="square" sketch:type="MSShapeGroup"></path>
                <path d="M208,91.5892857 L208,69.3498677 L212.714547,69.3498677 L212.714547,87.6951058 L221.733019,87.6951058 L221.733019,91.5892857 L208,91.5892857 Z M245.777208,80.4391534 C245.777208,84.1203888 244.864725,86.9497256 243.03973,88.9272487 C241.214734,90.9047718 238.598947,91.8935185 235.19229,91.8935185 C231.785633,91.8935185 229.169846,90.9047718 227.344851,88.9272487 C225.519856,86.9497256 224.607372,84.1102478 224.607372,80.4087302 C224.607372,76.7072125 225.52239,73.880411 227.352455,71.9282407 C229.182519,69.9760705 231.80591,69 235.222707,69 C238.639503,69 241.252755,69.9836762 243.062542,71.9510582 C244.872329,73.9184402 245.777208,76.747777 245.777208,80.4391534 L245.777208,80.4391534 Z M229.550042,80.4391534 C229.550042,82.9237338 230.021492,84.7947468 230.964406,86.0522487 C231.90732,87.3097506 233.316601,87.9384921 235.19229,87.9384921 C238.953808,87.9384921 240.834538,85.4387375 240.834538,80.4391534 C240.834538,75.4294282 238.963946,72.9246032 235.222707,72.9246032 C233.347017,72.9246032 231.932667,73.5558799 230.979614,74.8184524 C230.026561,76.0810248 229.550042,77.9545731 229.550042,80.4391534 L229.550042,80.4391534 Z M263.509988,85.4133598 C263.509988,87.4213063 262.787605,89.0033011 261.342817,90.1593915 C259.89803,91.315482 257.888031,91.8935185 255.31276,91.8935185 C252.940266,91.8935185 250.841553,91.4473149 249.016558,90.5548942 L249.016558,86.1739418 C250.51711,86.8432573 251.786983,87.3148134 252.826216,87.5886243 C253.86545,87.8624352 254.815954,87.9993386 255.677757,87.9993386 C256.711921,87.9993386 257.505275,87.8015893 258.057843,87.4060847 C258.610411,87.01058 258.88669,86.4224025 258.88669,85.6415344 C258.88669,85.2054652 258.765026,84.8175722 258.521693,84.4778439 C258.278361,84.1381156 257.920971,83.8110686 257.449514,83.4966931 C256.978057,83.1823177 256.017414,82.6803385 254.567557,81.9907407 C253.20895,81.3518487 252.190009,80.7383186 251.510706,80.1501323 C250.831402,79.5619459 250.288981,78.8774289 249.883427,78.0965608 C249.477872,77.3156927 249.275098,76.4030035 249.275098,75.3584656 C249.275098,73.3910836 249.941718,71.8445823 251.274978,70.7189153 C252.608239,69.5932483 254.450949,69.0304233 256.803165,69.0304233 C257.958995,69.0304233 259.06158,69.1673267 260.110952,69.4411376 C261.160324,69.7149485 262.257839,70.1003062 263.403531,70.5972222 L261.882709,74.2632275 C260.696462,73.7764526 259.715542,73.4367294 258.939919,73.2440476 C258.164296,73.0513659 257.401358,72.9550265 256.651083,72.9550265 C255.758863,72.9550265 255.0745,73.1629168 254.597974,73.5787037 C254.121447,73.9944906 253.883187,74.5370337 253.883187,75.2063492 C253.883187,75.6221361 253.979505,75.9846766 254.172144,76.2939815 C254.364782,76.6032864 254.671478,76.9024456 255.092241,77.1914683 C255.513003,77.4804909 256.509132,78.0002167 258.080655,78.7506614 C260.159122,79.7444935 261.58361,80.740846 262.354164,81.7397487 C263.124717,82.7386514 263.509988,83.9631762 263.509988,85.4133598 L263.509988,85.4133598 Z M276.117599,91.5892857 L271.403052,91.5892857 L271.403052,73.2744709 L265.36539,73.2744709 L265.36539,69.3498677 L282.155261,69.3498677 L282.155261,73.2744709 L276.117599,73.2744709 L276.117599,91.5892857 Z M293.972045,84.2116402 L290.26124,84.2116402 L289.485621,69.3498677 L294.747664,69.3498677 L293.972045,84.2116402 Z M289.424788,89.4140212 C289.424788,88.5621651 289.652909,87.9182121 290.109158,87.4821429 C290.565407,87.0460737 291.229492,86.8280423 292.101434,86.8280423 C292.94296,86.8280423 293.594372,87.0511442 294.05569,87.4973545 C294.517008,87.9435648 294.747664,88.5824473 294.747664,89.4140212 C294.747664,90.2151716 294.514473,90.8464483 294.048086,91.3078704 C293.581698,91.7692924 292.932821,92 292.101434,92 C291.24977,92 290.590754,91.7743629 290.124366,91.323082 C289.657978,90.8718011 289.424788,90.2354538 289.424788,89.4140212 L289.424788,89.4140212 Z" id="LOST!-Copy-4" fill="#EC724F" sketch:type="MSShapeGroup"></path>
                <path d="M207,191.478868 L242.895271,191.478868 M259.597543,191.478868 L295.49731,191.478868 M207,176 L295.49731,176" id="Stroke-132-Copy-6" stroke="#59518B" stroke-width="7" sketch:type="MSShapeGroup"></path>
                <rect id="Rectangle-25-Copy-5" fill="#72CEAA" sketch:type="MSShapeGroup" x="207" y="101" width="88.2663012" height="61"></rect>
                <path d="M0,278 L390,278" id="Stroke-6-Copy" stroke="#59518B" stroke-width="8" sketch:type="MSShapeGroup"></path>
                <path d="M0,4 L390.981344,4" id="Stroke-6-Copy-2" stroke="#59518B" stroke-width="8" sketch:type="MSShapeGroup"></path>
                <path d="M391,0 L391,282" id="Stroke-6-Copy-3" stroke="#59518B" stroke-width="8" sketch:type="MSShapeGroup"></path>
                <path d="M1,0 L1,282" id="Stroke-6-Copy-4" stroke="#59518B" stroke-width="8" sketch:type="MSShapeGroup"></path>
                <path d="M266.690455,133.379926 C268.050225,132.784105 269,131.430234 269,129.849242 C269,127.722573 267.277427,126 265.150758,126 C263.024088,126 261.298566,127.722573 261.298566,129.849242 C261.298566,129.958378 261.307415,130.067513 261.313314,130.17075 L240.686686,130.17075 C240.695535,130.067513 240.701434,129.958378 240.701434,129.849242 C240.701434,127.722573 238.978861,126 236.852192,126 C234.725522,126 233,127.722573 233,129.849242 C233,131.430234 233.952724,132.784105 235.312495,133.379926 C233.952724,133.972798 233,135.329619 233,136.907661 C233,139.03433 234.725522,140.759853 236.852192,140.759853 C238.978861,140.759853 240.701434,139.03433 240.701434,136.907661 C240.701434,136.798525 240.695535,136.692339 240.686686,136.583204 L261.313314,136.583204 C261.307415,136.692339 261.298566,136.798525 261.298566,136.907661 C261.298566,139.03433 263.024088,140.759853 265.150758,140.759853 C267.277427,140.759853 269,139.03433 269,136.907661 C269,135.329619 268.050225,133.972798 266.690455,133.379926" id="Fill-20" fill="#59518B" sketch:type="MSShapeGroup"></path>
                <path d="M250.939,147.5 L252.5,149.99111 L250.5,153.180235 L252.5,156.36839 L250.5,159.557515 L252.5,162.74664 L250.5,165.938678 L252.5,169.129745 L250.5,172.319841 L252.5,175.508967 L250.5,178.700034 L252.5,181.893042 L250.5,185.084109 L252.5,188.274205 L250.5,191.466243 L252.5,194.658281 L250.5,197.849348 L252.5,201.041386 L250.5,204.234394 L252.5,207.425461 L250.5,210.61847 L252.5,213.810508 L250.5,217.003516 L252.5,220.196525 L250.5,223.383709 L252.5,226.573805 L250.5,229.766813 L252.5,232.95691 L250.5,236.149918 L252.5,239.341956 L250.5,242.536906 L252.5,245.729915 L250.5,248.923894 L252.5,252.119815 L250.5,255.315736 L252.5,258.507774 L250.5,261.702724 L252.5,264.899616 L250.5,268.096508 L252.5,271.298254 L250.5,274.5" id="Stroke-7" stroke="#59518B" stroke-width="4" sketch:type="MSShapeGroup" transform="translate(251.500000, 211.000000) rotate(-270.000000) translate(-251.500000, -211.000000) "></path>
                <path d="M196.5,204.5 L306.504501,204.5" id="Line" stroke="#FFFFFF" stroke-width="3" stroke-linecap="square" sketch:type="MSShapeGroup"></path>
            </g>
        </g>
    </g>
</svg>
