<?xml version="1.0" encoding="UTF-8" standalone="no"?>
<svg width="57px" height="61px" viewBox="0 0 57 61" version="1.1" xmlns="http://www.w3.org/2000/svg" xmlns:xlink="http://www.w3.org/1999/xlink">
    <!-- Generator: Sketch 3.7.2 (28276) - http://www.bohemiancoding.com/sketch -->
    <title>dog</title>
    <desc>Created with Sketch.</desc>
    <defs></defs>
    <g id="Page-1" stroke="none" stroke-width="1" fill="none" fill-rule="evenodd">
        <g id="Group">
            <g id="dog">
                <path d="M36.502,56.285 C37.198,55.98 37.685,55.286 37.685,54.478 C37.685,53.389 36.802,52.506 35.713,52.506 C34.624,52.506 33.741,53.389 33.741,54.478 C33.741,54.534 33.745,54.589 33.749,54.643 L23.187,54.643 C23.192,54.589 23.196,54.534 23.196,54.478 C23.196,53.389 22.313,52.506 21.224,52.506 C20.135,52.506 19.252,53.389 19.252,54.478 C19.252,55.286 19.739,55.98 20.435,56.285 C19.739,56.589 19.252,57.283 19.252,58.091 C19.252,59.18 20.135,60.063 21.224,60.063 C22.313,60.063 23.196,59.18 23.196,58.091 C23.196,58.036 23.192,57.981 23.187,57.926 L33.749,57.926 C33.745,57.981 33.741,58.036 33.741,58.091 C33.741,59.18 34.624,60.063 35.713,60.063 C36.802,60.063 37.685,59.18 37.685,58.091 C37.685,57.283 37.198,56.589 36.502,56.285" id="Fill-359" fill="#11344F"></path>
                <path d="M19.735,13.517 C15.941,1.441 2.509,2.147 2.509,2.147 C-0.851,15.235 5.195,25.146 10.19,27.877 L19.735,13.517" id="Fill-360" fill="#38BCAC"></path>
                <path d="M37.201,13.517 C40.995,1.441 54.427,2.147 54.427,2.147 C57.787,15.235 51.741,25.146 46.746,27.877 L37.201,13.517" id="Fill-361" fill="#38BCAC"></path>
                <path d="M44.154,44.238 C46.592,43.091 47.235,39.607 47.235,36.36 L47.235,29.492 C47.235,13.205 33.804,12.453 28.468,12.453 C23.132,12.453 9.701,13.205 9.701,29.492 L9.701,36.36 C9.701,39.607 10.344,43.091 12.782,44.238 L44.154,44.238" id="Fill-362" fill="#72CEAA"></path>
                <path d="M19.465,41.716 C19.465,36.743 37.471,36.743 37.471,41.716 C37.471,46.688 33.441,50.719 28.468,50.719 C23.496,50.719 19.465,46.688 19.465,41.716" id="Fill-363" fill="#FFFFFF"></path>
                <path d="M28.512,32.712 L28.512,36.711 C28.512,51.157 44.303,47.837 44.303,47.837 C44.303,35.54 38.889,29.651 28.468,29.651 C18.048,29.651 12.634,35.54 12.634,47.837 C12.634,47.837 28.468,51.157 28.468,36.711 L28.468,32.712" id="Fill-364" fill="#38BCAC"></path>
                <polygon id="Fill-365" fill="#FFFFFF" points="25.543 12.454 31.394 12.454 31.394 29.651 25.543 29.651"></polygon>
                <path d="M15.934,14.957 L19.735,13.517 C17.974,7.911 15.356,5.272 9.701,3.304 C5.74,1.927 2.89,2.128 2.509,2.147 L2.692,6.25 C2.714,6.248 5.334,6.136 8.257,7.153 C12.149,8.506 14.732,11.132 15.934,14.957" id="Fill-366" fill="#72CEAA"></path>
                <path d="M9.629,28.904 C4.095,25.879 -2.124,15.487 1.375,1.856 L1.589,1.024 L2.448,0.979 C2.594,0.97 6.081,0.806 10.084,2.199 C15.461,4.069 19.185,7.862 20.851,13.167 L18.619,13.868 C15.674,4.496 6.322,3.424 3.43,3.32 C0.757,15.173 6.135,24.327 10.752,26.851 L9.629,28.904" id="Fill-367" fill="#11344F"></path>
                <path d="M16.356,49.341 C14.159,49.341 12.54,49.013 12.394,48.982 L11.463,48.787 L11.463,47.837 C11.463,41.464 12.911,36.593 15.766,33.358 C18.623,30.122 22.896,28.481 28.468,28.481 C34.04,28.481 38.314,30.122 41.171,33.358 C44.026,36.593 45.473,41.464 45.473,47.837 L45.473,48.787 L44.544,48.982 C44.214,49.052 36.406,50.634 31.371,46.548 C30.12,45.533 29.159,44.27 28.489,42.766 C27.819,44.265 26.859,45.525 25.611,46.538 C22.8,48.821 19.121,49.341 16.356,49.341 L16.356,49.341 Z M13.816,46.836 C15.883,47.092 20.883,47.369 24.143,44.716 C26.236,43.012 27.298,40.319 27.298,36.711 L27.298,32.712 L29.682,32.712 L29.682,36.711 C29.682,40.325 30.744,43.021 32.838,44.725 C36.086,47.367 41.06,47.092 43.12,46.836 C42.845,36.063 38.044,30.821 28.468,30.821 C18.893,30.821 14.092,36.063 13.816,46.836 L13.816,46.836 Z" id="Fill-368" fill="#11344F"></path>
                <path d="M41.002,14.957 L37.201,13.517 C38.963,7.911 41.58,5.272 47.235,3.304 C51.196,1.927 54.046,2.128 54.427,2.147 L54.245,6.25 C54.222,6.248 51.603,6.136 48.679,7.153 C44.787,8.506 42.204,11.132 41.002,14.957" id="Fill-369" fill="#72CEAA"></path>
                <path d="M47.307,28.904 L46.185,26.851 C50.802,24.326 56.182,15.169 53.505,3.313 C50.597,3.39 41.294,4.393 38.318,13.868 L36.085,13.167 C37.751,7.862 41.475,4.069 46.852,2.199 C50.855,0.806 54.342,0.97 54.488,0.979 L55.347,1.024 L55.561,1.856 C59.06,15.487 52.841,25.879 47.307,28.904" id="Fill-370" fill="#11344F"></path>
                <path d="M12.284,45.297 C9.829,44.142 8.531,41.051 8.531,36.36 L8.531,29.492 C8.531,21.186 11.99,11.284 28.468,11.284 C44.946,11.284 48.405,21.186 48.405,29.492 L48.405,36.36 C48.405,41.051 47.108,44.142 44.652,45.297 L43.656,43.179 C45.752,42.193 46.065,38.484 46.065,36.36 L46.065,29.492 C46.065,22.951 43.784,18.375 39.287,15.889 C35.186,13.624 30.13,13.624 28.468,13.624 C26.806,13.624 21.75,13.624 17.649,15.889 C13.152,18.375 10.871,22.951 10.871,29.492 L10.871,36.36 C10.871,38.484 11.184,42.193 13.28,43.179 L12.284,45.297" id="Fill-371" fill="#11344F"></path>
                <path d="M28.468,51.889 C25.339,51.889 22.322,50.573 20.191,48.279 L21.906,46.686 C23.595,48.505 25.987,49.548 28.468,49.548 C30.979,49.548 33.305,48.537 35.018,46.7 L36.73,48.296 C34.6,50.579 31.589,51.889 28.468,51.889" id="Fill-372" fill="#11344F"></path>
                <path d="M31.891,27.754 L25.045,27.754 C23.855,27.754 22.89,28.718 22.89,29.909 C22.89,31.099 23.855,32.064 25.045,32.064 L26.313,32.064 C26.313,33.254 27.278,34.219 28.468,34.219 C29.658,34.219 30.623,33.254 30.623,32.064 L31.891,32.064 C33.081,32.064 34.046,31.099 34.046,29.909 C34.046,28.718 33.081,27.754 31.891,27.754" id="Fill-373" fill="#11344F"></path>
                <path d="M34.195,26.377 C34.195,24.893 35.398,23.69 36.881,23.69 C38.366,23.69 39.568,24.893 39.568,26.377 C39.568,27.861 38.366,29.064 36.881,29.064 C35.398,29.064 34.195,27.861 34.195,26.377" id="Fill-374" fill="#11344F"></path>
                <path d="M17.369,26.377 C17.369,24.893 18.572,23.69 20.056,23.69 C21.54,23.69 22.743,24.893 22.743,26.377 C22.743,27.861 21.54,29.064 20.056,29.064 C18.572,29.064 17.369,27.861 17.369,26.377" id="Fill-375" fill="#11344F"></path>
                <path d="M32.901,35.009 C32.901,34.694 33.156,34.439 33.471,34.439 C33.786,34.439 34.041,34.694 34.041,35.009 C34.041,35.324 33.786,35.579 33.471,35.579 C33.156,35.579 32.901,35.324 32.901,35.009" id="Fill-376" fill="#72CEAA"></path>
                <path d="M37.113,36.589 C37.113,36.274 37.368,36.018 37.683,36.018 C37.998,36.018 38.254,36.274 38.254,36.589 C38.254,36.904 37.998,37.159 37.683,37.159 C37.368,37.159 37.113,36.904 37.113,36.589" id="Fill-377" fill="#72CEAA"></path>
                <path d="M36.06,40.275 C36.06,39.96 36.315,39.705 36.63,39.705 C36.945,39.705 37.201,39.96 37.201,40.275 C37.201,40.59 36.945,40.845 36.63,40.845 C36.315,40.845 36.06,40.59 36.06,40.275" id="Fill-378" fill="#72CEAA"></path>
                <path d="M34.48,37.642 C34.48,37.327 34.736,37.072 35.051,37.072 C35.365,37.072 35.621,37.327 35.621,37.642 C35.621,37.957 35.365,38.212 35.051,38.212 C34.736,38.212 34.48,37.957 34.48,37.642" id="Fill-379" fill="#72CEAA"></path>
                <path d="M31.847,38.695 C31.847,38.38 32.103,38.125 32.418,38.125 C32.732,38.125 32.988,38.38 32.988,38.695 C32.988,39.01 32.732,39.265 32.418,39.265 C32.103,39.265 31.847,39.01 31.847,38.695" id="Fill-380" fill="#72CEAA"></path>
                <path d="M24.036,35.009 C24.036,34.694 23.781,34.439 23.466,34.439 C23.151,34.439 22.896,34.694 22.896,35.009 C22.896,35.324 23.151,35.579 23.466,35.579 C23.781,35.579 24.036,35.324 24.036,35.009" id="Fill-381" fill="#72CEAA"></path>
                <path d="M19.823,36.589 C19.823,36.274 19.568,36.018 19.253,36.018 C18.938,36.018 18.683,36.274 18.683,36.589 C18.683,36.904 18.938,37.159 19.253,37.159 C19.568,37.159 19.823,36.904 19.823,36.589" id="Fill-382" fill="#72CEAA"></path>
                <path d="M20.876,40.275 C20.876,39.96 20.621,39.705 20.306,39.705 C19.991,39.705 19.736,39.96 19.736,40.275 C19.736,40.59 19.991,40.845 20.306,40.845 C20.621,40.845 20.876,40.59 20.876,40.275" id="Fill-383" fill="#72CEAA"></path>
                <path d="M22.456,37.642 C22.456,37.327 22.201,37.072 21.886,37.072 C21.571,37.072 21.316,37.327 21.316,37.642 C21.316,37.957 21.571,38.212 21.886,38.212 C22.201,38.212 22.456,37.957 22.456,37.642" id="Fill-384" fill="#72CEAA"></path>
                <path d="M25.089,38.695 C25.089,38.38 24.834,38.125 24.519,38.125 C24.204,38.125 23.949,38.38 23.949,38.695 C23.949,39.01 24.204,39.265 24.519,39.265 C24.834,39.265 25.089,39.01 25.089,38.695" id="Fill-385" fill="#72CEAA"></path>
            </g>
        </g>
    </g>
</svg>