<?xml version="1.0" encoding="UTF-8" standalone="no"?>
<svg width="211px" height="61px" viewBox="0 0 211 61" version="1.1" xmlns="http://www.w3.org/2000/svg" xmlns:xlink="http://www.w3.org/1999/xlink">
    <!-- Generator: Sketch 3.7.2 (28276) - http://www.bohemiancoding.com/sketch -->
    <title>Group</title>
    <desc>Created with Sketch.</desc>
    <defs></defs>
    <g id="Page-1" stroke="none" stroke-width="1" fill="none" fill-rule="evenodd">
        <g id="Group">
            <path d="M36.502,56.285 C37.198,55.98 37.685,55.286 37.685,54.478 C37.685,53.389 36.802,52.506 35.713,52.506 C34.624,52.506 33.741,53.389 33.741,54.478 C33.741,54.534 33.745,54.589 33.749,54.643 L23.187,54.643 C23.192,54.589 23.196,54.534 23.196,54.478 C23.196,53.389 22.313,52.506 21.224,52.506 C20.135,52.506 19.252,53.389 19.252,54.478 C19.252,55.286 19.739,55.98 20.435,56.285 C19.739,56.589 19.252,57.283 19.252,58.091 C19.252,59.18 20.135,60.063 21.224,60.063 C22.313,60.063 23.196,59.18 23.196,58.091 C23.196,58.036 23.192,57.981 23.187,57.926 L33.749,57.926 C33.745,57.981 33.741,58.036 33.741,58.091 C33.741,59.18 34.624,60.063 35.713,60.063 C36.802,60.063 37.685,59.18 37.685,58.091 C37.685,57.283 37.198,56.589 36.502,56.285" id="Fill-359" fill="#11344F"></path>
            <path d="M19.735,13.517 C15.941,1.441 2.509,2.147 2.509,2.147 C-0.851,15.235 5.195,25.146 10.19,27.877 L19.735,13.517" id="Fill-360" fill="#38BCAC"></path>
            <path d="M37.201,13.517 C40.995,1.441 54.427,2.147 54.427,2.147 C57.787,15.235 51.741,25.146 46.746,27.877 L37.201,13.517" id="Fill-361" fill="#38BCAC"></path>
            <path d="M44.154,44.238 C46.592,43.091 47.235,39.607 47.235,36.36 L47.235,29.492 C47.235,13.205 33.804,12.453 28.468,12.453 C23.132,12.453 9.701,13.205 9.701,29.492 L9.701,36.36 C9.701,39.607 10.344,43.091 12.782,44.238 L44.154,44.238" id="Fill-362" fill="#72CEAA"></path>
            <path d="M19.465,41.716 C19.465,36.743 37.471,36.743 37.471,41.716 C37.471,46.688 33.441,50.719 28.468,50.719 C23.496,50.719 19.465,46.688 19.465,41.716" id="Fill-363" fill="#FFFFFF"></path>
            <path d="M28.512,32.712 L28.512,36.711 C28.512,51.157 44.303,47.837 44.303,47.837 C44.303,35.54 38.889,29.651 28.468,29.651 C18.048,29.651 12.634,35.54 12.634,47.837 C12.634,47.837 28.468,51.157 28.468,36.711 L28.468,32.712" id="Fill-364" fill="#38BCAC"></path>
            <polygon id="Fill-365" fill="#FFFFFF" points="25.543 12.454 31.394 12.454 31.394 29.651 25.543 29.651"></polygon>
            <path d="M15.934,14.957 L19.735,13.517 C17.974,7.911 15.356,5.272 9.701,3.304 C5.74,1.927 2.89,2.128 2.509,2.147 L2.692,6.25 C2.714,6.248 5.334,6.136 8.257,7.153 C12.149,8.506 14.732,11.132 15.934,14.957" id="Fill-366" fill="#72CEAA"></path>
            <path d="M9.629,28.904 C4.095,25.879 -2.124,15.487 1.375,1.856 L1.589,1.024 L2.448,0.979 C2.594,0.97 6.081,0.806 10.084,2.199 C15.461,4.069 19.185,7.862 20.851,13.167 L18.619,13.868 C15.674,4.496 6.322,3.424 3.43,3.32 C0.757,15.173 6.135,24.327 10.752,26.851 L9.629,28.904" id="Fill-367" fill="#11344F"></path>
            <path d="M16.356,49.341 C14.159,49.341 12.54,49.013 12.394,48.982 L11.463,48.787 L11.463,47.837 C11.463,41.464 12.911,36.593 15.766,33.358 C18.623,30.122 22.896,28.481 28.468,28.481 C34.04,28.481 38.314,30.122 41.171,33.358 C44.026,36.593 45.473,41.464 45.473,47.837 L45.473,48.787 L44.544,48.982 C44.214,49.052 36.406,50.634 31.371,46.548 C30.12,45.533 29.159,44.27 28.489,42.766 C27.819,44.265 26.859,45.525 25.611,46.538 C22.8,48.821 19.121,49.341 16.356,49.341 L16.356,49.341 Z M13.816,46.836 C15.883,47.092 20.883,47.369 24.143,44.716 C26.236,43.012 27.298,40.319 27.298,36.711 L27.298,32.712 L29.682,32.712 L29.682,36.711 C29.682,40.325 30.744,43.021 32.838,44.725 C36.086,47.367 41.06,47.092 43.12,46.836 C42.845,36.063 38.044,30.821 28.468,30.821 C18.893,30.821 14.092,36.063 13.816,46.836 L13.816,46.836 Z" id="Fill-368" fill="#11344F"></path>
            <path d="M41.002,14.957 L37.201,13.517 C38.963,7.911 41.58,5.272 47.235,3.304 C51.196,1.927 54.046,2.128 54.427,2.147 L54.245,6.25 C54.222,6.248 51.603,6.136 48.679,7.153 C44.787,8.506 42.204,11.132 41.002,14.957" id="Fill-369" fill="#72CEAA"></path>
            <path d="M47.307,28.904 L46.185,26.851 C50.802,24.326 56.182,15.169 53.505,3.313 C50.597,3.39 41.294,4.393 38.318,13.868 L36.085,13.167 C37.751,7.862 41.475,4.069 46.852,2.199 C50.855,0.806 54.342,0.97 54.488,0.979 L55.347,1.024 L55.561,1.856 C59.06,15.487 52.841,25.879 47.307,28.904" id="Fill-370" fill="#11344F"></path>
            <path d="M12.284,45.297 C9.829,44.142 8.531,41.051 8.531,36.36 L8.531,29.492 C8.531,21.186 11.99,11.284 28.468,11.284 C44.946,11.284 48.405,21.186 48.405,29.492 L48.405,36.36 C48.405,41.051 47.108,44.142 44.652,45.297 L43.656,43.179 C45.752,42.193 46.065,38.484 46.065,36.36 L46.065,29.492 C46.065,22.951 43.784,18.375 39.287,15.889 C35.186,13.624 30.13,13.624 28.468,13.624 C26.806,13.624 21.75,13.624 17.649,15.889 C13.152,18.375 10.871,22.951 10.871,29.492 L10.871,36.36 C10.871,38.484 11.184,42.193 13.28,43.179 L12.284,45.297" id="Fill-371" fill="#11344F"></path>
            <path d="M28.468,51.889 C25.339,51.889 22.322,50.573 20.191,48.279 L21.906,46.686 C23.595,48.505 25.987,49.548 28.468,49.548 C30.979,49.548 33.305,48.537 35.018,46.7 L36.73,48.296 C34.6,50.579 31.589,51.889 28.468,51.889" id="Fill-372" fill="#11344F"></path>
            <path d="M31.891,27.754 L25.045,27.754 C23.855,27.754 22.89,28.718 22.89,29.909 C22.89,31.099 23.855,32.064 25.045,32.064 L26.313,32.064 C26.313,33.254 27.278,34.219 28.468,34.219 C29.658,34.219 30.623,33.254 30.623,32.064 L31.891,32.064 C33.081,32.064 34.046,31.099 34.046,29.909 C34.046,28.718 33.081,27.754 31.891,27.754" id="Fill-373" fill="#11344F"></path>
            <path d="M34.195,26.377 C34.195,24.893 35.398,23.69 36.881,23.69 C38.366,23.69 39.568,24.893 39.568,26.377 C39.568,27.861 38.366,29.064 36.881,29.064 C35.398,29.064 34.195,27.861 34.195,26.377" id="Fill-374" fill="#11344F"></path>
            <path d="M17.369,26.377 C17.369,24.893 18.572,23.69 20.056,23.69 C21.54,23.69 22.743,24.893 22.743,26.377 C22.743,27.861 21.54,29.064 20.056,29.064 C18.572,29.064 17.369,27.861 17.369,26.377" id="Fill-375" fill="#11344F"></path>
            <path d="M32.901,35.009 C32.901,34.694 33.156,34.439 33.471,34.439 C33.786,34.439 34.041,34.694 34.041,35.009 C34.041,35.324 33.786,35.579 33.471,35.579 C33.156,35.579 32.901,35.324 32.901,35.009" id="Fill-376" fill="#72CEAA"></path>
            <path d="M37.113,36.589 C37.113,36.274 37.368,36.018 37.683,36.018 C37.998,36.018 38.254,36.274 38.254,36.589 C38.254,36.904 37.998,37.159 37.683,37.159 C37.368,37.159 37.113,36.904 37.113,36.589" id="Fill-377" fill="#72CEAA"></path>
            <path d="M36.06,40.275 C36.06,39.96 36.315,39.705 36.63,39.705 C36.945,39.705 37.201,39.96 37.201,40.275 C37.201,40.59 36.945,40.845 36.63,40.845 C36.315,40.845 36.06,40.59 36.06,40.275" id="Fill-378" fill="#72CEAA"></path>
            <path d="M34.48,37.642 C34.48,37.327 34.736,37.072 35.051,37.072 C35.365,37.072 35.621,37.327 35.621,37.642 C35.621,37.957 35.365,38.212 35.051,38.212 C34.736,38.212 34.48,37.957 34.48,37.642" id="Fill-379" fill="#72CEAA"></path>
            <path d="M31.847,38.695 C31.847,38.38 32.103,38.125 32.418,38.125 C32.732,38.125 32.988,38.38 32.988,38.695 C32.988,39.01 32.732,39.265 32.418,39.265 C32.103,39.265 31.847,39.01 31.847,38.695" id="Fill-380" fill="#72CEAA"></path>
            <path d="M24.036,35.009 C24.036,34.694 23.781,34.439 23.466,34.439 C23.151,34.439 22.896,34.694 22.896,35.009 C22.896,35.324 23.151,35.579 23.466,35.579 C23.781,35.579 24.036,35.324 24.036,35.009" id="Fill-381" fill="#72CEAA"></path>
            <path d="M19.823,36.589 C19.823,36.274 19.568,36.018 19.253,36.018 C18.938,36.018 18.683,36.274 18.683,36.589 C18.683,36.904 18.938,37.159 19.253,37.159 C19.568,37.159 19.823,36.904 19.823,36.589" id="Fill-382" fill="#72CEAA"></path>
            <path d="M20.876,40.275 C20.876,39.96 20.621,39.705 20.306,39.705 C19.991,39.705 19.736,39.96 19.736,40.275 C19.736,40.59 19.991,40.845 20.306,40.845 C20.621,40.845 20.876,40.59 20.876,40.275" id="Fill-383" fill="#72CEAA"></path>
            <path d="M22.456,37.642 C22.456,37.327 22.201,37.072 21.886,37.072 C21.571,37.072 21.316,37.327 21.316,37.642 C21.316,37.957 21.571,38.212 21.886,38.212 C22.201,38.212 22.456,37.957 22.456,37.642" id="Fill-384" fill="#72CEAA"></path>
            <path d="M25.089,38.695 C25.089,38.38 24.834,38.125 24.519,38.125 C24.204,38.125 23.949,38.38 23.949,38.695 C23.949,39.01 24.204,39.265 24.519,39.265 C24.834,39.265 25.089,39.01 25.089,38.695" id="Fill-385" fill="#72CEAA"></path>
            <polyline id="Fill-386" fill="#11344F" points="67.578 41.012 67.303 41.012 67.052 40.987 66.802 40.962 66.552 40.937 66.327 40.887 66.101 40.837 65.876 40.787 65.651 40.712 65.451 40.612 65.2 40.511 64.975 40.411 64.775 40.286 64.574 40.161 64.374 40.011 64.174 39.861 63.999 39.685 63.849 39.51 63.673 39.335 63.523 39.16 63.373 38.96 63.248 38.734 63.123 38.534 63.022 38.309 62.922 38.083 62.847 37.833 62.697 37.383 62.597 36.932 62.572 36.682 62.547 36.431 62.497 35.931 62.497 27.17 64.85 27.17 64.85 35.305 64.875 35.58 64.9 35.855 64.95 36.131 65 36.381 65.075 36.607 65.15 36.832 65.25 37.057 65.375 37.282 65.476 37.458 65.626 37.658 65.926 38.008 66.127 38.184 66.327 38.309 66.527 38.434 66.752 38.559 66.978 38.659 67.228 38.734 67.503 38.784 67.778 38.834 68.054 38.859 68.63 38.859 68.88 38.834 69.13 38.784 69.381 38.734 69.606 38.659 69.856 38.559 70.056 38.459 70.282 38.359 70.482 38.234 70.682 38.083 70.857 37.933 71.033 37.758 71.333 37.408 71.483 37.207 71.608 36.982 71.708 36.757 71.834 36.506 71.909 36.306 72.009 35.855 72.059 35.63 72.084 35.38 72.109 35.13 72.109 27.17 74.437 27.17 74.437 40.712 72.109 40.712 72.109 38.434 71.959 38.634 71.834 38.834 71.659 39.035 71.508 39.235 71.333 39.41 71.158 39.585 70.958 39.761 70.757 39.936 70.557 40.086 70.357 40.236 70.157 40.361 69.956 40.486 69.756 40.587 69.556 40.662 69.33 40.762 69.105 40.812 68.88 40.887 68.63 40.937 68.379 40.962 68.129 40.987 67.854 41.012 67.578 41.012"></polyline>
            <polyline id="Fill-387" fill="#11344F" points="78.217 27.17 80.57 27.17 80.57 29.448 80.695 29.247 80.845 29.047 80.995 28.847 81.17 28.646 81.345 28.446 81.521 28.271 81.696 28.096 81.896 27.946 82.096 27.77 82.322 27.62 82.547 27.495 82.772 27.37 83.023 27.245 83.273 27.145 83.548 27.069 83.773 27.02 84.024 26.969 84.274 26.919 84.525 26.894 84.8 26.869 85.35 26.869 85.601 26.894 85.851 26.919 86.101 26.944 86.327 26.994 86.577 27.045 86.802 27.095 87.003 27.17 87.228 27.245 87.453 27.37 87.678 27.47 87.904 27.595 88.104 27.72 88.304 27.871 88.479 28.021 88.655 28.196 88.83 28.346 88.98 28.547 89.13 28.722 89.28 28.922 89.406 29.147 89.531 29.347 89.631 29.573 89.731 29.798 89.831 30.048 89.881 30.274 89.956 30.499 90.006 30.724 90.056 30.949 90.081 31.2 90.131 31.45 90.131 31.7 90.157 31.951 90.157 40.712 87.804 40.712 87.804 32.577 87.753 32.026 87.703 31.75 87.653 31.5 87.503 31.049 87.403 30.824 87.278 30.599 87.178 30.424 87.028 30.224 86.902 30.048 86.727 29.873 86.527 29.698 86.327 29.573 86.126 29.448 85.901 29.322 85.676 29.222 85.425 29.147 85.175 29.097 84.9 29.047 84.624 29.022 84.049 29.022 83.798 29.047 83.298 29.147 83.073 29.222 82.847 29.297 82.622 29.398 82.397 29.498 82.197 29.623 81.996 29.773 81.821 29.923 81.646 30.098 81.495 30.274 81.345 30.474 81.195 30.674 81.07 30.899 80.77 31.575 80.72 31.801 80.62 32.251 80.594 32.501 80.57 32.752 80.57 40.712 78.217 40.712 78.217 27.17"></polyline>
            <path d="M99.393,41.012 L99.143,41.012 L98.917,40.987 L98.667,40.962 L98.442,40.937 L98.216,40.887 L97.966,40.837 L97.741,40.787 L97.491,40.712 L97.265,40.637 L97.04,40.537 L96.815,40.436 L96.589,40.336 L96.364,40.211 L96.164,40.086 L95.964,39.961 L95.738,39.811 L95.563,39.66 L95.363,39.51 L95.163,39.335 L94.987,39.16 L94.837,38.984 L94.662,38.809 L94.512,38.634 L94.387,38.459 L94.237,38.259 L94.111,38.059 L93.986,37.858 L93.861,37.633 L93.736,37.408 L93.636,37.182 L93.536,36.957 L93.436,36.732 L93.285,36.281 L93.235,36.056 L93.16,35.806 L93.135,35.555 L93.035,35.055 L93.01,34.804 L93.01,34.529 L92.985,34.254 L92.985,33.653 L93.01,33.377 L93.01,33.102 L93.035,32.852 L93.085,32.601 L93.11,32.351 L93.16,32.101 L93.235,31.851 L93.285,31.625 L93.36,31.375 L93.436,31.15 L93.536,30.924 L93.636,30.699 L93.736,30.474 L93.836,30.248 L93.961,30.023 L94.211,29.623 L94.362,29.422 L94.487,29.247 L94.637,29.072 L94.812,28.897 L94.962,28.722 L95.138,28.547 L95.338,28.371 L95.538,28.221 L95.713,28.071 L95.939,27.921 L96.139,27.795 L96.339,27.67 L96.565,27.545 L96.79,27.445 L97.015,27.345 L97.24,27.245 L97.491,27.17 L97.716,27.095 L97.941,27.045 L98.191,26.994 L98.417,26.944 L98.667,26.919 L98.917,26.894 L99.143,26.869 L99.643,26.869 L99.894,26.894 L100.144,26.919 L100.369,26.944 L100.595,26.994 L100.82,27.045 L101.045,27.095 L101.295,27.17 L101.521,27.27 L101.771,27.345 L101.996,27.47 L102.221,27.57 L102.422,27.695 L102.622,27.821 L102.822,27.971 L103.023,28.096 L103.198,28.246 L103.373,28.396 L103.548,28.571 L103.849,28.922 L103.999,29.072 L104.149,29.272 L104.299,29.448 L104.424,29.623 L104.424,21.713 L106.752,21.713 L106.752,40.712 L104.424,40.712 L104.424,38.134 L104.299,38.334 L104.149,38.509 L103.999,38.684 L103.849,38.884 L103.698,39.059 L103.523,39.235 L103.348,39.41 L103.173,39.56 L102.997,39.735 L102.797,39.886 L102.622,40.036 L102.422,40.161 L102.196,40.286 L101.996,40.411 L101.771,40.511 L101.521,40.612 L101.295,40.712 L101.045,40.787 L100.82,40.837 L100.595,40.887 L100.369,40.937 L100.144,40.962 L99.894,40.987 L99.643,41.012 L99.393,41.012 L99.393,41.012 Z M99.869,38.934 L100.119,38.934 L100.369,38.909 L100.62,38.859 L100.87,38.809 L101.12,38.759 L101.37,38.659 L101.596,38.559 L101.821,38.459 L102.046,38.334 L102.272,38.208 L102.472,38.059 L102.672,37.908 L102.872,37.733 L103.073,37.558 L103.223,37.383 L103.373,37.207 L103.498,37.032 L103.648,36.832 L103.749,36.632 L103.874,36.431 L103.974,36.206 L104.099,35.981 L104.249,35.53 L104.324,35.28 L104.424,34.779 L104.474,34.228 L104.474,33.628 L104.449,33.352 L104.424,33.102 L104.324,32.601 L104.249,32.351 L104.174,32.126 L104.099,31.876 L103.974,31.676 L103.874,31.45 L103.749,31.25 L103.648,31.049 L103.498,30.849 L103.373,30.674 L103.073,30.324 L102.872,30.148 L102.672,29.973 L102.472,29.823 L102.272,29.673 L102.046,29.548 L101.821,29.422 L101.596,29.297 L101.37,29.222 L101.12,29.122 L100.87,29.072 L100.62,29.022 L100.369,28.972 L100.119,28.947 L99.618,28.947 L99.343,28.972 L99.093,28.997 L98.842,29.047 L98.592,29.122 L98.367,29.197 L98.142,29.272 L97.891,29.398 L97.691,29.498 L97.466,29.623 L97.265,29.773 L97.065,29.923 L96.89,30.073 L96.715,30.248 L96.539,30.449 L96.364,30.649 L96.214,30.849 L96.089,31.075 L95.838,31.575 L95.738,31.826 L95.663,32.051 L95.513,32.551 L95.488,32.802 L95.438,33.077 L95.413,33.352 L95.388,33.628 L95.388,34.228 L95.413,34.504 L95.438,34.779 L95.488,35.029 L95.538,35.28 L95.588,35.53 L95.663,35.755 L95.763,35.981 L95.864,36.256 L95.989,36.506 L96.239,36.957 L96.389,37.182 L96.565,37.383 L96.74,37.558 L96.915,37.758 L97.09,37.933 L97.29,38.083 L97.491,38.234 L97.716,38.359 L97.916,38.484 L98.166,38.584 L98.392,38.684 L98.617,38.759 L98.867,38.809 L99.118,38.859 L99.368,38.909 L99.618,38.934 L99.869,38.934 L99.869,38.934 Z" id="Fill-388" fill="#11344F"></path>
            <path d="M116.539,41.012 L116.289,41.012 L116.039,40.987 L115.788,40.962 L115.538,40.937 L115.288,40.912 L115.062,40.862 L114.812,40.812 L114.361,40.662 L114.136,40.587 L113.911,40.486 L113.661,40.386 L113.41,40.286 L113.185,40.161 L112.96,40.036 L112.734,39.886 L112.534,39.735 L112.309,39.585 L112.109,39.41 L111.933,39.26 L111.733,39.059 L111.558,38.909 L111.408,38.734 L111.258,38.534 L111.108,38.359 L110.982,38.158 L110.832,37.958 L110.707,37.758 L110.582,37.533 L110.482,37.307 L110.381,37.082 L110.281,36.857 L110.181,36.632 L110.106,36.406 L110.031,36.181 L109.981,35.956 L109.906,35.73 L109.856,35.48 L109.831,35.255 L109.781,35.005 L109.756,34.754 L109.756,34.504 L109.731,34.228 L109.731,33.678 L109.756,33.402 L109.756,33.152 L109.806,32.902 L109.831,32.652 L109.881,32.401 L109.981,31.901 L110.056,31.65 L110.131,31.425 L110.231,31.175 L110.306,30.949 L110.407,30.724 L110.507,30.499 L110.632,30.299 L110.732,30.073 L110.857,29.873 L111.007,29.673 L111.132,29.473 L111.283,29.297 L111.433,29.122 L111.583,28.922 L111.758,28.746 L111.959,28.571 L112.134,28.396 L112.334,28.221 L112.534,28.071 L112.76,27.921 L112.96,27.795 L113.185,27.645 L113.41,27.545 L113.661,27.42 L113.861,27.32 L114.312,27.17 L114.537,27.095 L114.787,27.045 L115.012,26.994 L115.263,26.944 L115.513,26.919 L115.763,26.894 L116.014,26.869 L116.539,26.869 L116.815,26.894 L117.065,26.919 L117.34,26.944 L117.591,26.994 L117.841,27.045 L118.066,27.095 L118.316,27.17 L118.542,27.245 L118.767,27.345 L118.992,27.445 L119.217,27.57 L119.468,27.695 L119.668,27.821 L119.893,27.971 L120.094,28.121 L120.294,28.271 L120.469,28.446 L120.669,28.621 L120.82,28.797 L120.995,28.997 L121.295,29.398 L121.445,29.623 L121.57,29.823 L121.696,30.048 L121.821,30.299 L121.921,30.524 L122.046,30.774 L122.121,31.025 L122.221,31.275 L122.296,31.525 L122.372,31.775 L122.422,32.026 L122.472,32.276 L122.522,32.527 L122.547,32.777 L122.597,33.027 L122.622,33.277 L122.622,33.553 L122.647,33.803 L122.647,34.429 L122.597,34.804 L112.109,34.804 L112.134,35.055 L112.184,35.305 L112.234,35.53 L112.284,35.755 L112.359,35.981 L112.434,36.206 L112.509,36.406 L112.609,36.607 L112.734,36.832 L112.86,37.032 L112.985,37.232 L113.135,37.408 L113.285,37.608 L113.435,37.783 L113.61,37.933 L113.811,38.108 L114.036,38.259 L114.262,38.409 L114.487,38.534 L114.737,38.659 L114.987,38.759 L115.187,38.834 L115.413,38.884 L115.638,38.934 L115.889,38.984 L116.114,39.009 L116.339,39.035 L116.865,39.035 L117.115,39.009 L117.365,38.984 L117.616,38.96 L117.841,38.909 L118.066,38.859 L118.292,38.784 L118.492,38.734 L118.717,38.634 L118.917,38.534 L119.117,38.434 L119.318,38.309 L119.543,38.184 L119.743,38.033 L119.944,37.883 L120.119,37.733 L120.319,37.558 L120.519,37.383 L120.694,37.207 L120.87,37.357 L121.045,37.533 L121.22,37.683 L121.42,37.833 L121.596,38.008 L121.771,38.158 L121.946,38.334 L122.121,38.484 L121.946,38.684 L121.771,38.859 L121.596,39.035 L121.42,39.21 L121.22,39.36 L121.045,39.51 L120.845,39.66 L120.645,39.811 L120.444,39.961 L120.219,40.086 L120.019,40.211 L119.793,40.311 L119.593,40.436 L119.368,40.511 L119.143,40.612 L118.917,40.687 L118.692,40.762 L118.442,40.812 L118.191,40.862 L117.941,40.912 L117.666,40.937 L117.391,40.987 L117.115,40.987 L116.84,41.012 L116.539,41.012 L116.539,41.012 Z M120.269,33.127 L120.244,32.877 L120.219,32.627 L120.169,32.401 L120.119,32.151 L120.044,31.926 L119.994,31.7 L119.919,31.475 L119.793,31.225 L119.693,30.974 L119.568,30.749 L119.418,30.524 L119.268,30.324 L119.117,30.098 L118.917,29.923 L118.742,29.748 L118.542,29.573 L118.342,29.448 L118.116,29.297 L117.891,29.172 L117.666,29.097 L117.465,29.022 L117.24,28.947 L116.99,28.897 L116.739,28.872 L116.489,28.847 L115.963,28.847 L115.688,28.872 L115.413,28.922 L115.163,28.997 L114.912,29.072 L114.687,29.172 L114.437,29.297 L114.211,29.422 L114.011,29.548 L113.811,29.723 L113.61,29.873 L113.435,30.048 L113.26,30.248 L113.085,30.449 L112.935,30.674 L112.784,30.899 L112.659,31.15 L112.534,31.4 L112.434,31.65 L112.359,31.876 L112.284,32.126 L112.209,32.351 L112.159,32.601 L112.109,32.877 L112.084,33.127 L120.269,33.127 L120.269,33.127 Z" id="Fill-389" fill="#11344F"></path>
            <polyline id="Fill-390" fill="#11344F" points="125.475 27.17 127.828 27.17 127.828 30.549 127.929 30.324 128.054 30.098 128.154 29.873 128.279 29.648 128.429 29.448 128.554 29.247 128.705 29.047 128.854 28.847 129.005 28.672 129.18 28.496 129.355 28.346 129.53 28.171 129.706 28.021 129.906 27.871 130.106 27.745 130.306 27.62 130.507 27.52 130.707 27.395 130.932 27.295 131.157 27.22 131.608 27.069 131.858 27.02 132.109 26.994 132.359 26.944 133.135 26.944 133.135 29.422 132.709 29.422 132.434 29.448 132.184 29.473 131.933 29.523 131.683 29.573 131.433 29.623 131.183 29.698 130.957 29.798 130.707 29.898 130.482 29.998 130.281 30.123 130.081 30.274 129.881 30.424 129.681 30.574 129.505 30.749 129.33 30.924 129.18 31.099 129.03 31.275 128.88 31.475 128.755 31.676 128.629 31.876 128.529 32.076 128.429 32.301 128.329 32.551 128.229 32.777 128.154 33.002 128.104 33.202 128.029 33.428 127.979 33.653 127.953 33.878 127.904 34.103 127.878 34.354 127.853 34.604 127.853 34.854 127.828 35.105 127.828 40.712 125.475 40.712 125.475 27.17"></polyline>
            <path d="M140.67,41.012 L140.419,41.012 L140.194,40.987 L139.944,40.962 L139.719,40.937 L139.493,40.887 L139.243,40.837 L139.018,40.787 L138.767,40.712 L138.542,40.637 L138.317,40.537 L138.091,40.436 L137.866,40.336 L137.641,40.211 L137.44,40.086 L137.241,39.961 L137.015,39.811 L136.84,39.66 L136.64,39.51 L136.439,39.335 L136.264,39.16 L136.114,38.984 L135.939,38.809 L135.789,38.634 L135.664,38.459 L135.513,38.259 L135.263,37.858 L135.013,37.408 L134.812,36.957 L134.712,36.732 L134.637,36.506 L134.562,36.281 L134.512,36.056 L134.437,35.806 L134.412,35.555 L134.362,35.305 L134.312,35.055 L134.287,34.804 L134.287,34.529 L134.262,34.254 L134.262,33.653 L134.287,33.377 L134.287,33.102 L134.312,32.852 L134.362,32.601 L134.387,32.351 L134.437,32.101 L134.512,31.851 L134.562,31.625 L134.637,31.375 L134.712,31.15 L134.812,30.924 L135.013,30.474 L135.113,30.248 L135.238,30.023 L135.488,29.623 L135.638,29.422 L135.763,29.247 L135.914,29.072 L136.089,28.897 L136.239,28.722 L136.414,28.547 L136.615,28.371 L136.815,28.221 L136.99,28.071 L137.215,27.921 L137.416,27.795 L137.616,27.67 L137.841,27.545 L138.066,27.445 L138.292,27.345 L138.517,27.245 L138.767,27.17 L138.993,27.095 L139.218,27.045 L139.468,26.994 L139.693,26.944 L139.944,26.919 L140.194,26.894 L140.419,26.869 L140.92,26.869 L141.17,26.894 L141.421,26.919 L141.646,26.944 L141.871,26.994 L142.096,27.045 L142.322,27.095 L142.572,27.17 L142.797,27.27 L143.048,27.345 L143.273,27.47 L143.498,27.57 L143.698,27.695 L143.899,27.821 L144.099,27.971 L144.299,28.096 L144.475,28.246 L144.65,28.396 L144.825,28.571 L144.975,28.746 L145.125,28.922 L145.275,29.072 L145.426,29.272 L145.576,29.448 L145.701,29.623 L145.701,21.713 L148.029,21.713 L148.029,40.712 L145.701,40.712 L145.701,38.134 L145.576,38.334 L145.426,38.509 L145.275,38.684 L145.125,38.884 L144.975,39.059 L144.8,39.235 L144.625,39.41 L144.449,39.56 L144.274,39.735 L144.074,39.886 L143.899,40.036 L143.698,40.161 L143.473,40.286 L143.273,40.411 L143.048,40.511 L142.797,40.612 L142.572,40.712 L142.322,40.787 L142.096,40.837 L141.871,40.887 L141.646,40.937 L141.421,40.962 L141.17,40.987 L140.92,41.012 L140.67,41.012 L140.67,41.012 Z M141.145,38.934 L141.396,38.934 L141.646,38.909 L141.896,38.859 L142.397,38.759 L142.647,38.659 L142.872,38.559 L143.098,38.459 L143.323,38.334 L143.548,38.208 L143.749,38.059 L143.949,37.908 L144.149,37.733 L144.349,37.558 L144.5,37.383 L144.65,37.207 L144.775,37.032 L144.925,36.832 L145.025,36.632 L145.15,36.431 L145.251,36.206 L145.376,35.981 L145.451,35.755 L145.526,35.53 L145.601,35.28 L145.651,35.029 L145.701,34.779 L145.726,34.504 L145.751,34.228 L145.751,33.628 L145.726,33.352 L145.701,33.102 L145.651,32.852 L145.601,32.601 L145.526,32.351 L145.451,32.126 L145.376,31.876 L145.251,31.676 L145.15,31.45 L145.025,31.25 L144.925,31.049 L144.775,30.849 L144.65,30.674 L144.5,30.499 L144.349,30.324 L143.949,29.973 L143.749,29.823 L143.548,29.673 L143.323,29.548 L143.098,29.422 L142.872,29.297 L142.647,29.222 L142.397,29.122 L142.146,29.072 L141.896,29.022 L141.646,28.972 L141.396,28.947 L140.895,28.947 L140.62,28.972 L140.37,28.997 L140.119,29.047 L139.869,29.122 L139.643,29.197 L139.418,29.272 L139.168,29.398 L138.968,29.498 L138.742,29.623 L138.542,29.773 L138.342,29.923 L138.166,30.073 L137.991,30.248 L137.816,30.449 L137.641,30.649 L137.491,30.849 L137.366,31.075 L137.241,31.325 L137.115,31.575 L137.015,31.826 L136.94,32.051 L136.79,32.551 L136.765,32.802 L136.715,33.077 L136.665,33.628 L136.665,34.228 L136.715,34.779 L136.865,35.53 L136.94,35.755 L137.04,35.981 L137.14,36.256 L137.265,36.506 L137.516,36.957 L137.666,37.182 L137.841,37.383 L138.016,37.558 L138.192,37.758 L138.367,37.933 L138.567,38.083 L138.767,38.234 L138.993,38.359 L139.193,38.484 L139.443,38.584 L139.668,38.684 L139.894,38.759 L140.144,38.809 L140.394,38.859 L140.645,38.909 L140.895,38.934 L141.145,38.934 L141.145,38.934 Z" id="Fill-391" fill="#11344F"></path>
            <path d="M158.091,41.012 L157.841,41.012 L157.591,40.987 L157.34,40.987 L157.09,40.962 L156.84,40.912 L156.614,40.862 L156.364,40.837 L156.139,40.762 L155.914,40.712 L155.688,40.637 L155.463,40.561 L155.263,40.461 L155.012,40.361 L154.787,40.236 L154.562,40.136 L154.362,40.011 L154.136,39.886 L153.936,39.735 L153.736,39.585 L153.561,39.435 L153.36,39.285 L153.185,39.11 L153.01,38.934 L152.835,38.759 L152.534,38.409 L152.384,38.208 L152.234,38.008 L152.109,37.808 L151.984,37.583 L151.858,37.383 L151.733,37.157 L151.633,36.932 L151.533,36.707 L151.433,36.481 L151.358,36.231 L151.283,36.006 L151.233,35.755 L151.158,35.505 L151.108,35.28 L151.082,35.029 L151.058,34.779 L151.032,34.529 L151.007,34.254 L151.007,33.703 L151.032,33.428 L151.058,33.177 L151.082,32.927 L151.108,32.676 L151.158,32.426 L151.233,32.201 L151.283,31.951 L151.358,31.7 L151.458,31.475 L151.558,31.225 L151.658,31 L151.758,30.774 L151.858,30.549 L151.984,30.349 L152.109,30.123 L152.259,29.923 L152.409,29.723 L152.559,29.523 L152.709,29.347 L152.86,29.147 L153.035,28.972 L153.21,28.797 L153.385,28.621 L153.586,28.471 L153.761,28.321 L153.961,28.171 L154.186,28.021 L154.387,27.896 L154.612,27.77 L154.837,27.645 L155.062,27.545 L155.288,27.42 L155.513,27.345 L155.738,27.27 L155.964,27.195 L156.189,27.119 L156.414,27.069 L156.665,27.02 L156.89,26.969 L157.14,26.919 L157.391,26.894 L157.641,26.894 L157.891,26.869 L158.392,26.869 L158.642,26.894 L158.892,26.894 L159.143,26.919 L159.368,26.969 L159.618,27.02 L159.844,27.069 L160.069,27.119 L160.294,27.195 L160.519,27.27 L160.97,27.42 L161.195,27.545 L161.421,27.645 L161.646,27.77 L161.871,27.896 L162.071,28.021 L162.272,28.171 L162.472,28.296 L162.672,28.446 L162.847,28.621 L163.048,28.772 L163.223,28.947 L163.373,29.122 L163.548,29.297 L163.698,29.498 L163.849,29.673 L163.974,29.873 L164.124,30.073 L164.249,30.299 L164.374,30.499 L164.474,30.724 L164.574,30.949 L164.7,31.175 L164.775,31.4 L164.875,31.65 L164.95,31.876 L165,32.126 L165.075,32.376 L165.125,32.627 L165.15,32.877 L165.175,33.127 L165.2,33.377 L165.225,33.653 L165.225,34.204 L165.2,34.479 L165.175,34.729 L165.15,34.979 L165.125,35.23 L165.075,35.48 L165,35.705 L164.95,35.956 L164.875,36.206 L164.775,36.431 L164.7,36.657 L164.574,36.907 L164.474,37.132 L164.374,37.357 L164.249,37.558 L164.124,37.783 L163.974,37.983 L163.824,38.184 L163.698,38.384 L163.523,38.559 L163.373,38.734 L163.198,38.909 L162.847,39.26 L162.447,39.56 L162.246,39.71 L162.046,39.861 L161.846,39.986 L161.621,40.111 L161.395,40.236 L161.17,40.336 L160.945,40.436 L160.72,40.537 L160.494,40.612 L160.269,40.687 L160.044,40.762 L159.794,40.812 L159.568,40.862 L159.318,40.912 L159.092,40.962 L158.842,40.987 L158.592,40.987 L158.342,41.012 L158.091,41.012 L158.091,41.012 Z M158.129,38.934 L158.38,38.934 L158.656,38.909 L158.882,38.884 L159.133,38.834 L159.384,38.784 L159.61,38.709 L159.836,38.634 L160.061,38.534 L160.288,38.434 L160.513,38.309 L160.739,38.158 L160.965,38.008 L161.166,37.833 L161.341,37.658 L161.542,37.483 L161.693,37.282 L161.869,37.082 L161.994,36.857 L162.144,36.632 L162.27,36.406 L162.371,36.156 L162.496,35.906 L162.571,35.705 L162.622,35.455 L162.697,35.23 L162.747,35.005 L162.772,34.754 L162.797,34.504 L162.822,34.254 L162.822,33.703 L162.797,33.453 L162.772,33.202 L162.722,32.952 L162.672,32.727 L162.622,32.476 L162.546,32.251 L162.471,32.001 L162.371,31.801 L162.27,31.575 L162.144,31.35 L162.019,31.15 L161.894,30.974 L161.768,30.774 L161.618,30.599 L161.467,30.424 L161.291,30.248 L161.09,30.048 L160.89,29.898 L160.664,29.748 L160.438,29.598 L160.212,29.473 L159.961,29.347 L159.735,29.247 L159.51,29.172 L159.284,29.097 L159.058,29.047 L158.807,28.997 L158.581,28.972 L158.33,28.947 L157.828,28.947 L157.552,28.972 L157.326,28.997 L157.075,29.047 L156.824,29.097 L156.598,29.172 L156.372,29.247 L156.171,29.347 L155.92,29.473 L155.695,29.598 L155.468,29.748 L155.243,29.898 L155.042,30.048 L154.841,30.248 L154.666,30.424 L154.49,30.624 L154.339,30.824 L154.189,31.049 L154.038,31.275 L153.913,31.5 L153.812,31.75 L153.712,32.001 L153.611,32.226 L153.561,32.451 L153.486,32.702 L153.436,32.927 L153.411,33.177 L153.385,33.402 L153.36,33.653 L153.36,34.204 L153.385,34.454 L153.411,34.704 L153.461,34.954 L153.511,35.18 L153.561,35.43 L153.637,35.655 L153.737,35.881 L153.812,36.106 L153.913,36.306 L154.038,36.531 L154.163,36.732 L154.289,36.907 L154.414,37.107 L154.565,37.282 L154.917,37.633 L155.117,37.833 L155.318,37.983 L155.544,38.134 L155.769,38.284 L155.996,38.409 L156.247,38.534 L156.448,38.634 L156.673,38.709 L156.899,38.784 L157.15,38.834 L157.376,38.884 L157.627,38.909 L157.878,38.934 L158.129,38.934 L158.129,38.934 Z" id="Fill-392" fill="#11344F"></path>
            <path d="M174.187,44.917 L173.661,44.917 L173.41,44.892 L173.16,44.867 L172.91,44.842 L172.659,44.817 L172.409,44.792 L172.159,44.742 L171.909,44.692 L171.658,44.642 L171.433,44.591 L171.183,44.541 L170.957,44.466 L170.707,44.391 L170.257,44.241 L170.031,44.166 L169.806,44.066 L169.581,43.966 L169.355,43.866 L169.13,43.766 L168.905,43.64 L168.705,43.515 L168.479,43.415 L168.254,43.265 L168.054,43.14 L168.179,42.915 L168.554,42.24 L168.679,41.99 L168.93,41.54 L169.055,41.315 L169.255,41.465 L169.481,41.59 L169.681,41.715 L169.906,41.84 L170.131,41.965 L170.357,42.065 L170.557,42.165 L171.007,42.365 L171.233,42.44 L171.483,42.54 L171.708,42.59 L171.934,42.664 L172.184,42.715 L172.409,42.765 L172.659,42.815 L172.91,42.864 L173.135,42.89 L173.385,42.914 L173.636,42.914 L173.911,42.94 L174.462,42.94 L174.737,42.914 L175.013,42.89 L175.263,42.864 L175.513,42.814 L175.763,42.764 L176.014,42.689 L176.239,42.614 L176.464,42.514 L176.665,42.439 L176.89,42.314 L177.065,42.214 L177.265,42.063 L177.441,41.938 L177.616,41.788 L177.766,41.638 L177.916,41.462 L178.066,41.287 L178.191,41.087 L178.317,40.887 L178.417,40.687 L178.517,40.461 L178.592,40.236 L178.667,39.986 L178.767,39.485 L178.817,39.21 L178.842,38.934 L178.867,38.634 L178.867,36.907 L178.717,37.109 L178.567,37.286 L178.417,37.488 L178.241,37.664 L178.066,37.816 L177.916,37.993 L177.716,38.17 L177.541,38.322 L177.366,38.473 L177.165,38.625 L176.965,38.751 L176.564,39.003 L176.364,39.105 L175.964,39.306 L175.738,39.382 L175.513,39.458 L175.288,39.509 L175.038,39.559 L174.787,39.609 L174.537,39.635 L174.287,39.66 L174.011,39.685 L173.485,39.685 L173.26,39.66 L173.01,39.635 L172.785,39.61 L172.56,39.585 L172.309,39.535 L172.084,39.46 L171.858,39.41 L171.633,39.334 L171.408,39.234 L171.183,39.159 L170.957,39.058 L170.732,38.958 L170.532,38.833 L170.332,38.707 L170.131,38.582 L169.931,38.432 L169.731,38.306 L169.556,38.13 L169.38,37.98 L169.205,37.805 L169.03,37.629 L168.88,37.453 L168.705,37.253 L168.579,37.052 L168.429,36.851 L168.304,36.651 L168.054,36.199 L167.954,35.974 L167.854,35.748 L167.778,35.547 L167.703,35.296 L167.653,35.071 L167.578,34.845 L167.528,34.594 L167.478,34.092 L167.453,33.842 L167.428,33.591 L167.428,32.989 L167.453,32.738 L167.478,32.487 L167.503,32.237 L167.528,31.986 L167.578,31.735 L167.653,31.509 L167.703,31.258 L167.778,31.033 L167.878,30.807 L167.979,30.581 L168.079,30.355 L168.329,29.904 L168.454,29.703 L168.579,29.503 L168.729,29.302 L168.88,29.101 L169.055,28.926 L169.205,28.75 L169.38,28.575 L169.556,28.424 L169.731,28.249 L169.931,28.123 L170.131,27.973 L170.332,27.847 L170.532,27.722 L170.732,27.597 L170.957,27.496 L171.183,27.396 L171.408,27.296 L171.633,27.221 L171.858,27.145 L172.084,27.095 L172.309,27.02 L172.56,26.97 L172.785,26.944 L173.01,26.919 L173.26,26.894 L173.485,26.869 L174.011,26.869 L174.287,26.894 L174.537,26.919 L174.812,26.944 L175.062,26.994 L175.288,27.045 L175.538,27.095 L175.763,27.17 L175.989,27.245 L176.189,27.32 L176.414,27.42 L176.614,27.52 L176.815,27.645 L177.015,27.795 L177.24,27.946 L177.441,28.096 L177.641,28.246 L177.841,28.421 L178.041,28.571 L178.217,28.746 L178.392,28.922 L178.542,29.122 L178.717,29.297 L178.867,29.498 L178.867,27.17 L181.195,27.17 L181.195,38.509 L181.17,38.809 L181.17,39.11 L181.12,39.385 L181.095,39.66 L181.045,39.936 L180.995,40.186 L180.945,40.436 L180.87,40.687 L180.795,40.937 L180.719,41.162 L180.62,41.388 L180.544,41.613 L180.419,41.813 L180.319,42.039 L180.194,42.239 L180.069,42.414 L179.919,42.614 L179.794,42.789 L179.618,42.94 L179.468,43.115 L179.118,43.415 L178.767,43.715 L178.567,43.841 L178.367,43.966 L178.141,44.091 L177.916,44.191 L177.691,44.291 L177.465,44.391 L177.24,44.466 L176.99,44.541 L176.765,44.617 L176.539,44.667 L176.289,44.717 L176.039,44.767 L175.789,44.817 L175.538,44.842 L175.288,44.867 L175.013,44.892 L174.737,44.917 L174.187,44.917 L174.187,44.917 Z M174.261,37.608 L174.512,37.608 L174.762,37.583 L175.013,37.558 L175.263,37.508 L175.513,37.458 L175.763,37.383 L176.014,37.283 L176.264,37.208 L176.489,37.109 L176.715,36.984 L176.915,36.859 L177.115,36.734 L177.315,36.585 L177.516,36.41 L177.691,36.26 L177.841,36.085 L178.016,35.886 L178.141,35.711 L178.292,35.511 L178.417,35.287 L178.542,35.062 L178.642,34.837 L178.792,34.338 L178.892,33.839 L178.917,33.589 L178.917,32.99 L178.892,32.716 L178.792,32.217 L178.642,31.717 L178.542,31.493 L178.292,31.044 L178.141,30.844 L178.016,30.669 L177.841,30.47 L177.691,30.295 L177.516,30.12 L177.315,29.97 L177.115,29.821 L176.915,29.696 L176.715,29.571 L176.489,29.446 L176.264,29.346 L176.014,29.246 L175.763,29.171 L175.513,29.097 L175.263,29.047 L175.013,28.997 L174.762,28.972 L174.512,28.947 L174.011,28.947 L173.761,28.972 L173.511,28.997 L173.26,29.047 L173.01,29.097 L172.785,29.171 L172.56,29.246 L172.309,29.346 L172.109,29.446 L171.884,29.546 L171.683,29.671 L171.483,29.796 L171.308,29.945 L171.133,30.095 L170.957,30.27 L170.807,30.444 L170.657,30.644 L170.532,30.819 L170.407,31.019 L170.281,31.243 L170.081,31.693 L170.006,31.942 L169.956,32.192 L169.856,32.691 L169.831,32.965 L169.831,33.565 L169.856,33.839 L169.956,34.338 L170.006,34.588 L170.081,34.812 L170.281,35.262 L170.407,35.486 L170.532,35.686 L170.657,35.886 L170.807,36.06 L170.983,36.235 L171.158,36.41 L171.333,36.56 L171.508,36.709 L171.708,36.859 L171.909,36.984 L172.109,37.084 L172.334,37.208 L172.56,37.283 L172.785,37.383 L173.035,37.458 L173.26,37.508 L173.511,37.558 L173.761,37.583 L174.011,37.608 L174.261,37.608 L174.261,37.608 Z" id="Fill-393" fill="#11344F"></path>
            <polygon id="Fill-394" fill="#11344F" points="184.749 37.708 187.477 37.708 187.477 40.712 184.749 40.712"></polygon>
            <path d="M191.032,22.013 L193.66,22.013 L193.66,24.466 L191.032,24.466 L191.032,22.013 Z M191.182,27.17 L193.51,27.17 L193.51,40.712 L191.182,40.712 L191.182,27.17 Z" id="Fill-395" fill="#11344F"></path>
            <path d="M203.748,41.012 L203.497,41.012 L203.247,40.987 L202.997,40.987 L202.746,40.962 L202.496,40.912 L202.271,40.862 L202.02,40.837 L201.795,40.762 L201.57,40.712 L201.345,40.637 L201.119,40.561 L200.919,40.461 L200.669,40.361 L200.444,40.236 L200.218,40.136 L200.018,40.011 L199.793,39.886 L199.392,39.585 L199.217,39.435 L199.017,39.285 L198.841,39.11 L198.666,38.934 L198.491,38.759 L198.341,38.584 L198.191,38.409 L198.04,38.208 L197.89,38.008 L197.765,37.808 L197.64,37.583 L197.515,37.383 L197.389,37.157 L197.289,36.932 L197.189,36.707 L197.089,36.481 L197.014,36.231 L196.939,36.006 L196.889,35.755 L196.814,35.505 L196.764,35.28 L196.739,35.029 L196.714,34.779 L196.689,34.529 L196.664,34.254 L196.664,33.703 L196.689,33.428 L196.714,33.177 L196.739,32.927 L196.764,32.676 L196.814,32.426 L196.889,32.201 L196.939,31.951 L197.014,31.7 L197.114,31.475 L197.214,31.225 L197.315,31 L197.415,30.774 L197.515,30.549 L197.64,30.349 L197.765,30.123 L197.915,29.923 L198.065,29.723 L198.216,29.523 L198.366,29.347 L198.516,29.147 L198.691,28.972 L198.867,28.797 L199.042,28.621 L199.242,28.471 L199.417,28.321 L199.617,28.171 L199.843,28.021 L200.043,27.896 L200.268,27.77 L200.494,27.645 L200.719,27.545 L200.944,27.42 L201.169,27.345 L201.395,27.27 L201.62,27.195 L201.845,27.119 L202.071,27.069 L202.321,27.02 L202.546,26.969 L202.796,26.919 L203.047,26.894 L203.297,26.894 L203.547,26.869 L204.048,26.869 L204.298,26.894 L204.549,26.894 L204.799,26.919 L205.024,26.969 L205.274,27.02 L205.5,27.069 L205.725,27.119 L205.95,27.195 L206.176,27.27 L206.401,27.345 L206.626,27.42 L206.851,27.545 L207.077,27.645 L207.302,27.77 L207.527,27.896 L207.728,28.021 L207.928,28.171 L208.128,28.296 L208.328,28.446 L208.504,28.621 L208.704,28.772 L208.879,28.947 L209.029,29.122 L209.204,29.297 L209.355,29.498 L209.505,29.673 L209.63,29.873 L209.78,30.073 L209.905,30.299 L210.03,30.499 L210.131,30.724 L210.231,30.949 L210.356,31.175 L210.431,31.4 L210.531,31.65 L210.606,31.876 L210.656,32.126 L210.732,32.376 L210.781,32.627 L210.807,32.877 L210.831,33.127 L210.857,33.377 L210.881,33.653 L210.881,34.204 L210.857,34.479 L210.831,34.729 L210.807,34.979 L210.781,35.23 L210.732,35.48 L210.656,35.705 L210.606,35.956 L210.531,36.206 L210.431,36.431 L210.356,36.657 L210.231,36.907 L210.131,37.132 L210.03,37.357 L209.905,37.558 L209.78,37.783 L209.63,37.983 L209.48,38.184 L209.355,38.384 L209.18,38.559 L209.029,38.734 L208.854,38.909 L208.679,39.085 L208.504,39.26 L208.303,39.41 L208.103,39.56 L207.903,39.71 L207.703,39.861 L207.502,39.986 L207.277,40.111 L207.052,40.236 L206.827,40.336 L206.601,40.436 L206.376,40.537 L206.151,40.612 L205.925,40.687 L205.7,40.762 L205.45,40.812 L205.224,40.862 L204.974,40.912 L204.749,40.962 L204.498,40.987 L204.248,40.987 L203.998,41.012 L203.748,41.012 L203.748,41.012 Z M203.785,38.934 L204.036,38.934 L204.312,38.909 L204.538,38.884 L204.789,38.834 L205.04,38.784 L205.266,38.709 L205.492,38.634 L205.718,38.534 L205.944,38.434 L206.169,38.309 L206.396,38.158 L206.621,38.008 L206.822,37.833 L206.998,37.658 L207.199,37.483 L207.349,37.282 L207.525,37.082 L207.65,36.857 L207.801,36.632 L207.926,36.406 L208.027,36.156 L208.152,35.906 L208.227,35.705 L208.278,35.455 L208.353,35.23 L208.403,35.005 L208.429,34.754 L208.454,34.504 L208.479,34.254 L208.479,33.703 L208.454,33.453 L208.429,33.202 L208.378,32.952 L208.328,32.727 L208.278,32.476 L208.202,32.251 L208.127,32.001 L208.027,31.801 L207.926,31.575 L207.801,31.35 L207.676,31.15 L207.55,30.974 L207.425,30.774 L207.274,30.599 L207.123,30.424 L206.948,30.248 L206.747,30.048 L206.546,29.898 L206.32,29.748 L206.094,29.598 L205.868,29.473 L205.617,29.347 L205.391,29.247 L205.166,29.172 L204.94,29.097 L204.714,29.047 L204.463,28.997 L204.237,28.972 L203.986,28.947 L203.484,28.947 L203.208,28.972 L202.982,28.997 L202.731,29.047 L202.48,29.097 L202.254,29.172 L202.028,29.247 L201.827,29.347 L201.577,29.473 L201.351,29.598 L201.125,29.748 L200.899,29.898 L200.698,30.048 L200.497,30.248 L200.322,30.424 L200.146,30.624 L199.996,30.824 L199.845,31.049 L199.694,31.275 L199.569,31.5 L199.368,32.001 L199.268,32.226 L199.217,32.451 L199.142,32.702 L199.092,32.927 L199.067,33.177 L199.042,33.402 L199.017,33.653 L199.017,34.204 L199.067,34.704 L199.117,34.954 L199.167,35.18 L199.217,35.43 L199.293,35.655 L199.393,35.881 L199.469,36.106 L199.569,36.306 L199.694,36.531 L199.82,36.732 L199.945,36.907 L200.071,37.107 L200.221,37.282 L200.397,37.458 L200.573,37.633 L200.774,37.833 L200.974,37.983 L201.2,38.134 L201.426,38.284 L201.652,38.409 L201.903,38.534 L202.104,38.634 L202.329,38.709 L202.556,38.784 L202.807,38.834 L203.032,38.884 L203.283,38.909 L203.534,38.934 L203.785,38.934 L203.785,38.934 Z" id="Fill-396" fill="#11344F"></path>
        </g>
    </g>
</svg>